<svg version="1.1" xmlns="http://www.w3.org/2000/svg" viewBox="0 0 802.337890625 458.71875" width="1604.67578125" height="917.4375">
  <!-- svg-source:excalidraw -->
  
  <defs>
    <style>
      @font-face {
        font-family: "Virgil";
        src: url("https://excalidraw.com/Virgil.woff2");
      }
      @font-face {
        font-family: "Cascadia";
        src: url("https://excalidraw.com/Cascadia.woff2");
      }
    </style>
  </defs>
  <rect x="0" y="0" width="802.337890625" height="458.71875" fill="#ffffff"></rect><g stroke-linecap="round" transform="translate(10 51.5546875) rotate(0 177.119140625 198.58203125)"><path d="M-0.99 0.35 C137.87 1.06, 273 0.91, 353.97 -0.77 M0.42 -0.23 C91.16 1.99, 182.31 1.19, 353.96 0.34 M353.76 -0.98 C354.03 138.96, 355.14 278.5, 353.58 396.71 M353.69 0.24 C352.38 111.37, 352.37 221.26, 353.92 397.67 M355.31 397 C260.27 396.45, 166.51 396.87, -0.57 398.39 M353.79 396.75 C217.79 397.73, 82.22 398.11, 0.05 396.61 M1.09 396.18 C2.94 302.04, 3.11 207.25, -0.32 -0.46 M-0.45 396.91 C-1.24 300.15, -1.18 204.02, 0.36 -0.04" stroke="#000000" stroke-width="1" fill="none"></path></g><g transform="translate(125.3984375 61.76953125) rotate(0 23.5 12.5)"><text x="0" y="18" font-family="Virgil, Segoe UI Emoji" font-size="20px" fill="#000000" text-anchor="start" style="white-space: pre;" direction="ltr">index</text></g><g stroke-linecap="round" transform="translate(39.1171875 119.28515625) rotate(0 126.81640625000003 39.279296875)"><path d="M0 0 C0 0, 0 0, 0 0 M0 0 C0 0, 0 0, 0 0 M-1.05 6.54 C1.93 4.07, 2.76 3.2, 4.5 0.63 M-0.4 6.13 C1.39 4.53, 2.92 2.37, 4.89 -0.02 M0.47 13.64 C4.19 6.7, 7.75 1.8, 9.84 -1.48 M0.55 12.62 C3.45 7.71, 7.91 4.03, 10 0.51 M0.51 18.25 C3.65 13.8, 11.14 5.13, 16.89 1.82 M-0.15 17.74 C3.45 13.24, 7.36 10.53, 15.26 0.03 M-0.12 22.27 C5.44 20.35, 10.73 14.45, 22.88 1.76 M-0.42 24.74 C7.27 14.62, 15 6.2, 21.01 -0.78 M0.4 31.86 C6.67 21.57, 15.34 14.29, 24.48 -1.37 M-0.28 29.91 C8.29 20.69, 15.76 12.65, 26.4 -0.05 M-0.1 38.42 C9.77 21.95, 23.97 10.83, 31.29 -2.06 M0.04 36.22 C6.83 29.42, 13.49 21.06, 31.32 -0.03 M-1.67 41.19 C11.42 28.68, 21.44 18.06, 36.44 0.08 M0.29 41.68 C13.92 27.77, 24.91 14.52, 36.96 1.13 M-0.18 49.58 C13.12 31.6, 28.12 15.68, 41.77 -1.7 M0.14 49.64 C7.8 38.94, 18.83 28.93, 43.08 -0.67 M1.21 53.83 C11.94 38.92, 27.83 24.28, 48.67 0.76 M-0.13 55.5 C13.64 38.03, 29.18 23.12, 46.74 0.53 M-1.11 59.09 C22.2 36.71, 40.45 12.7, 51.24 0.44 M-0.98 60.72 C18.59 40.36, 36.15 19.66, 53.58 0.76 M1.3 68.12 C16.21 49.52, 27.73 33.2, 59.09 1.26 M-0.91 67.58 C13.44 52.8, 25.3 37, 58.53 0.1 M-0.98 71.56 C18.54 53.18, 34.81 35.7, 62.59 -0.04 M-0.52 73.41 C19.88 51.33, 37.3 29.99, 63.11 0.71 M-0.55 77.41 C17.51 59.18, 32.99 40.41, 67.6 0.18 M0.22 78.12 C17.31 58.71, 34.14 38.68, 68.13 0.8 M5.36 79.52 C33.68 48.26, 57.52 17.55, 72.73 -1.57 M4.55 78.62 C22.96 58.54, 41.65 37.42, 74.98 0.63 M13.12 77.45 C27.86 59.61, 47.98 37.69, 80.1 2.11 M11.1 78.74 C27.6 59.46, 43.75 41.73, 80.34 0.57 M15.83 79.59 C34.5 57.1, 52.13 37.33, 84.57 -0.53 M17.05 78.31 C39.83 50.08, 65.01 21.12, 85.47 -1.01 M23.36 79.19 C44.14 48.69, 68.47 22.81, 88.51 1.65 M22.16 79.23 C43.57 53.78, 65.98 28.51, 90.95 0.37 M25.07 80.39 C50.94 51.77, 74.55 24.43, 95.02 0.66 M27.51 79.47 C51.98 51.28, 74.82 22.35, 95.9 -0.78 M31.08 80.2 C55.17 51.49, 79.29 27.11, 98.73 -0.61 M32.72 79.04 C57.39 49.41, 80.95 22.4, 100.76 0.15 M39 78.51 C58.53 52.81, 84.72 25.82, 106.98 1.59 M36.73 78.04 C61.03 49.74, 85.77 22.67, 106.55 -0.21 M43.19 80.08 C59.62 57.46, 79.54 34.8, 110.66 1.91 M43.06 78.62 C63.16 56.06, 81.51 34.9, 111.58 0.87 M49.51 80.55 C68.85 57.12, 87.06 33.27, 116.71 0.62 M48.52 78.99 C73.27 50.93, 98.09 21.69, 116.07 0.9 M51.93 81.18 C77.19 52.74, 100.39 26.65, 122.21 1.83 M53.83 80.18 C77.5 51.21, 99.75 25.49, 122.18 0.48 M58.52 79.1 C82.94 50.4, 106.9 26.78, 128.41 -0.18 M59.66 78.26 C77.09 58.3, 94.01 38.03, 126.05 -0.5 M65.53 77.58 C79.2 59.91, 93.79 43.99, 133.29 1.72 M64.64 78.66 C83.23 56.59, 103.13 33.92, 132.38 -0.07 M69.94 80.75 C91.52 56.03, 110.11 32.37, 138.35 1.55 M69.96 78.82 C88.45 57.61, 105.05 37.89, 137.16 -0.21 M76.24 79.63 C94.46 55.93, 113.87 34.49, 141.81 -1.81 M74.12 78.27 C99.53 51.64, 122.41 23.52, 142.96 -0.83 M81.67 78.1 C100.76 52.21, 122.73 31.04, 149.42 1.41 M80.2 78.6 C95.67 59.6, 112.92 39.73, 147.67 0.23 M82.96 78.93 C100.44 57.78, 119.06 41.49, 155.67 1.83 M84.58 79.47 C105.81 55.11, 125.96 30.68, 153.73 -0.84 M89.61 77.75 C119.24 49.03, 142.36 15.56, 158.54 0.97 M90.2 78.58 C104.88 61.45, 117.9 46.6, 158.9 0.26 M94.6 81.07 C112.67 57.71, 128.24 40.04, 164.77 1.22 M95.31 79.71 C120.14 50.65, 145.24 23.14, 163.49 -0.14 M99.67 80.28 C121.85 56.06, 140.44 33.72, 168.6 -0.15 M100.74 78.69 C119.62 58.83, 136.56 40.18, 169.13 0.35 M106.06 77.64 C133 49.13, 155.77 18.21, 177.02 -1.03 M106.61 79.43 C125.93 57.01, 144.63 35.32, 176.02 0.21 M111.76 80.29 C126.83 63.7, 141.87 46.88, 180.52 -0.38 M111.62 77.89 C135.3 50.21, 160.48 20.82, 179.66 -0.05 M118.25 78.24 C132.37 63.73, 146.63 45.99, 186.34 -0.32 M117.77 78.1 C139.24 55.1, 159.57 30.19, 186.13 0.16 M123.78 78.38 C144.34 55.49, 164.69 33.42, 189.21 -0.1 M121.64 78.14 C140.9 58.73, 156.34 39.06, 190.8 -0.49 M126.08 78.46 C145.02 59.2, 163.11 40.07, 196.62 -2.08 M127.09 78.17 C153.27 47.93, 182.01 16.6, 195.61 0.68 M131.64 77.13 C159.75 50.5, 181.62 18.76, 199.56 -1.74 M132.59 78.39 C153.52 55.47, 172.73 32.47, 201.82 0.47 M138.46 79.9 C158.1 55.38, 176.16 34.75, 205.77 -1.7 M137.88 79.08 C165.7 49.37, 191.45 18.17, 207.26 -0.29 M145.25 77.14 C168.75 50.69, 194.56 19.4, 210.49 -1.7 M143.28 78.58 C157.02 63.48, 171.21 47.51, 211.05 -0.69 M150.28 78.14 C171.03 52.42, 193.72 24.86, 217.7 -0.59 M148.42 79.3 C164.53 61.05, 178.66 44.37, 216.88 0.21 M152.52 77.01 C178.33 51.43, 199.53 25.35, 222.9 1.63 M153.49 77.69 C178.77 48.57, 204.64 20.44, 221.76 -0.54 M158.46 78.78 C173.38 62.16, 189.17 44.7, 226.31 -2.16 M160.01 78.28 C181.63 53.41, 204.65 25.86, 227.26 0.13 M163.34 77.33 C189.1 49.63, 217.01 20.37, 231.69 -0.18 M164.03 77.65 C184.29 56.21, 202.57 35.88, 232.26 -0.62 M169.9 77.42 C184.63 60.93, 200.09 41.61, 238.86 0.94 M170.95 78.46 C189.6 56.63, 209.03 34.54, 237.54 1.17 M172.97 77.44 C198.72 52.86, 220.22 26.11, 245.78 -1.53 M174.04 80.17 C198.5 52.62, 221.65 26.24, 243.84 0.53 M181.51 79.65 C202.76 55.22, 222.33 28.41, 250.56 -0.19 M180.54 79.31 C201.28 53.85, 224.38 27.23, 247.84 -0.21 M184.63 80.44 C210.86 53.27, 232.02 26.34, 255.41 1.94 M185.63 79.71 C202.36 60.83, 217.87 42.74, 254.15 0.11 M192.2 77.06 C213 52.57, 237.76 25.55, 255.42 7.81 M191.07 79.27 C213.74 51.88, 238.35 25.06, 254.04 5.73 M197.57 77.67 C207.8 65.74, 220.58 52.05, 252.31 14.39 M195.93 79.96 C216.3 55.69, 237.96 30.34, 253.29 12.14 M202.86 79.25 C222.3 56.03, 242.75 30.9, 255.33 17.55 M201.84 77.8 C218.2 58.77, 233.19 40.46, 254.95 18.93 M205.69 77.72 C221.68 65.61, 235.92 49.21, 253.22 24.07 M207.74 78.88 C216.89 67.67, 229.01 55.2, 253.41 25.76 M212.42 77.81 C221.06 66.26, 232.73 56.37, 254.81 30.34 M213.14 79.35 C222.89 67.06, 233.3 54.04, 252.95 31.08 M216.9 79.18 C233.48 62.66, 245.42 47.13, 255.05 36.6 M216.87 79.43 C224.56 69.16, 232.97 60.75, 253.8 36.41 M221.76 78.34 C230.61 69.93, 241.63 57.4, 253.06 41.26 M222.29 79.38 C231.47 69.29, 240.1 60.42, 254.15 42.61 M229.11 78.66 C233.41 72.05, 242.18 63.28, 252.7 47.56 M228.1 79.55 C234.58 71, 240.87 65.07, 254.75 48.56 M233.81 80.42 C236.46 73.17, 244.6 68.48, 253.34 53.66 M233.56 78.33 C238.66 72.56, 245.54 65.92, 253.69 55.23 M238.22 78.75 C242.09 73.51, 247.89 66.2, 254.43 63.3 M239.23 78.2 C243.29 74.11, 246.61 69.64, 252.92 62.4 M245.19 77.89 C247.24 77.53, 250.28 74.29, 253.72 67.92 M244.29 77.9 C248.12 75.01, 251.9 70.23, 254.33 67 M249.63 79.34 C250.23 77.03, 252.17 75.3, 253.43 73.76 M249.26 79.09 C250.29 78.24, 251.36 76.95, 253.94 73.4" stroke="#40c057" stroke-width="0.5" fill="none"></path><path d="M1.46 0.4 C67.29 -0.34, 135.31 -1.53, 252.93 0.74 M0.21 0.71 C60.61 0.44, 120.03 1.17, 254.04 0.22 M252.21 -0.57 C253.82 18.55, 252.15 36.54, 253.21 77.39 M252.71 0.99 C251.93 26.19, 252.33 54.52, 253.29 79.45 M253.97 77.54 C177.46 77.81, 98.71 79.84, 1.36 78.83 M253.05 78.79 C173.18 77.95, 92.88 76.54, -0.5 77.84 M1.64 77.99 C1.19 50.17, -1.31 22.06, -1.14 1.33 M0.46 77.59 C1.19 50.32, 1.26 22.81, 0.69 0.77" stroke="#000000" stroke-width="1" fill="none"></path></g><g stroke-linecap="round" transform="translate(42.92578125 222.638671875) rotate(0 125.056640625 101.6953125)"><path d="M0 0 C0 0, 0 0, 0 0 M0 0 C0 0, 0 0, 0 0 M-0.12 6.92 C1.46 3.7, 4.63 1.23, 5.26 0.4 M-0.53 6.49 C1.63 4.24, 3.21 1.93, 4.61 0.75 M1.73 11.92 C2.76 7.64, 5.84 3.93, 9.19 0.46 M0.71 11.81 C2.25 9.91, 5.02 5.69, 11.17 0.29 M-0.32 16.94 C6.86 12.75, 9.81 7.13, 17.11 -0.87 M-0.82 18.26 C3.9 12.78, 10.41 6.87, 15.32 -0.53 M-1.55 24.65 C6.99 19.42, 11.53 13.62, 23.08 1.03 M0.92 23.71 C6.36 16.11, 13.47 7.94, 20.55 -0.38 M1.39 29.93 C5.84 23.91, 13.27 13.5, 24.58 0.36 M-0.56 30.62 C5.68 22.96, 13.09 16.22, 25.9 0.79 M1.29 35.6 C6.93 27.95, 17.95 15.08, 29.93 -1.73 M-0.92 37.18 C12.09 23.2, 23.57 9.17, 31.96 -0.16 M-1.19 42.58 C6.22 33.54, 15.49 25.27, 36.7 1.07 M-0.7 43.51 C8.42 32.02, 18.19 22.74, 37.75 0.6 M0.54 48.16 C14 31.57, 29.55 13.52, 40.96 -1.81 M0.6 47.95 C16.13 31.71, 32.32 13.5, 41.99 -0.18 M-0.46 52.78 C19.46 32.92, 39.63 12.4, 48.04 0.17 M1.21 53.73 C12.79 40.62, 26.9 24.39, 47.82 1.2 M-1.86 61.98 C15.83 41.2, 31.94 22.96, 53.77 0.69 M-0.22 61.06 C14.34 44.92, 28.52 29.95, 54.08 -0.64 M0.52 69.2 C18.07 43.46, 37.9 23.84, 59.21 -1.44 M-0.02 67.82 C13.5 51.62, 26.03 36.78, 58.05 -0.12 M-1.3 73.97 C16.97 54.09, 36.05 33.47, 63.95 -0.3 M0.56 73.83 C18.16 52.18, 36.43 31.35, 64.7 -0.74 M-1.36 80.24 C26.77 48.24, 54.33 16.58, 68.8 -0.84 M-0.65 79.08 C20.06 55.48, 40.15 31.83, 69.41 0.95 M0.8 87.04 C21.76 59.32, 43.27 32.46, 73.09 -0.89 M-0.1 84.53 C27.61 54.88, 54.31 25.03, 75.29 -0.68 M-1.14 90.56 C23.69 66.61, 44.31 39.69, 81.39 -1.15 M0.15 92.06 C26.9 60.69, 55.07 29.6, 79.85 -0.31 M0.38 98.84 C27.98 64.91, 58.12 29.54, 84.79 0.82 M-0.9 97.23 C26.06 65.72, 52.59 34.54, 84.3 0.32 M0.76 102.06 C34.3 60.03, 72.4 18.98, 91.59 0.57 M0.8 103.55 C32.84 67.03, 64.73 31.08, 90.31 0.41 M1.34 110.77 C23.18 84.51, 46.35 54.42, 96.64 0.75 M0.42 110.72 C28.29 75.8, 55.81 43.94, 95.2 0.07 M1.94 114.65 C23.16 89.67, 48.55 60.83, 99.99 1.2 M0.78 115.35 C19.2 90.7, 40.7 68.26, 100.76 0.39 M-0.37 120.5 C38.98 78.53, 76.99 33.19, 108.24 0.81 M-0.84 121.03 C32.68 83.04, 67.7 45.24, 106.44 -0.63 M1.33 126.99 C42.19 79.74, 83.06 30.42, 113.19 -0.35 M-0.13 129.02 C30.21 92.68, 61.99 57.68, 112.14 -0.05 M1.83 134.92 C39.01 89.38, 75.45 47.77, 116.52 1.64 M0.28 134.48 C37.54 92.28, 73.05 49.83, 116.8 0.76 M1.84 141.48 C41.56 94.96, 83.21 47.17, 123.77 0.83 M0.84 140.83 C29.33 103.37, 61.29 69.39, 122.41 0.37 M0.55 146.96 C32.47 107.95, 70.16 67.71, 126.39 -0.34 M-0.28 146.36 C40.44 98.7, 80.32 53.53, 126.06 -0.46 M-1.42 152.74 C36.88 105.95, 77.5 61.56, 134.14 -0.31 M-0.45 152.35 C39.93 104.88, 80.33 58.05, 132.53 -0.05 M1.49 160.08 C36.7 115.69, 73.42 74.46, 138.64 -0.39 M-0.22 159.61 C32.07 119.46, 66.01 81.03, 137.08 0.26 M0.57 164.75 C52.14 103.99, 104.89 44.43, 141.68 0.88 M-0.61 165.23 C47.26 111.27, 93.17 58.92, 142.53 -0.02 M-0.67 170.31 C33.44 128.26, 72.32 87.25, 149.14 -0.72 M-0.24 170.41 C48.77 113.3, 97.91 55.33, 148.13 -0.22 M0.13 175.6 C45.76 123.14, 96.33 68.59, 155.45 -0.16 M0.58 176.63 C41.78 127.87, 83.59 79.1, 153.21 0.64 M-0.78 184.23 C41 135.68, 78.88 90.85, 159.41 -1.31 M-0.1 183.21 C50.14 123.66, 102.68 65.19, 158.82 -0.24 M1.38 189.34 C39.98 139.78, 84.08 91.67, 165.56 0.79 M0.27 188.89 C42.15 141.66, 84.51 93.02, 164.45 -0.33 M1.44 195.81 C39.59 150.35, 79.34 103.06, 169.14 -0.61 M0.16 195.65 C40.25 150.75, 80.5 104.36, 169.55 0.81 M-1.21 202.6 C68.29 121.16, 136.13 44.83, 174.41 -0.48 M0.2 201.14 C40.58 153.89, 81.15 109.28, 175.38 -0.96 M2.88 206.01 C45.63 157.43, 88.02 106.7, 179.63 1.18 M1.01 204.93 C71.49 124.26, 141.47 43.07, 179.89 -0.44 M6.65 204.69 C46.5 160.67, 83.07 120.1, 185.62 -0.02 M6.53 205.61 C58.73 144.95, 109.39 87.4, 186 -0.3 M12.04 206.49 C50.93 162.37, 89.41 116.12, 190.5 -0.66 M11.86 206.17 C55.11 157, 97.7 108.44, 190.2 -0.18 M17.47 204.77 C71.92 145.23, 125.75 84.88, 194.91 1.29 M17.24 204.33 C90.42 123.95, 161.79 41.27, 197.06 0.31 M21.73 206.93 C93.72 124.09, 162.26 42.89, 199.88 0.06 M22.71 205.46 C76.56 144.88, 129.36 85.59, 201.61 -0.15 M29.25 206.53 C89.72 132.64, 153.93 57.24, 205.86 1.01 M28.61 205.62 C75.13 153.62, 119.49 102.02, 206.96 0.32 M32.4 204.92 C94.6 135.21, 153.02 65.92, 210.57 -1.42 M33.52 205.38 C104.31 125.94, 174.13 44.79, 211.35 0.29 M38.54 205.21 C106.99 125, 174.62 45.69, 217.38 -1.69 M39.44 205.4 C77.5 159.42, 117.6 112.86, 218.01 -0.03 M42.95 205.84 C92.53 149.02, 142.13 93.64, 223.82 1.07 M43.48 204.6 C88.24 153.47, 134.81 99.89, 222.13 -0.59 M49.69 203.87 C100.35 148.21, 149.68 90.61, 226.82 0.12 M49.3 205.09 C120.53 123.41, 189.83 41.45, 228.6 0.28 M53.86 204.16 C121.35 131.87, 186.99 55.51, 233.07 -0.34 M54.1 205.69 C113.38 139.54, 172.73 72.01, 232.73 -0.6 M59.29 203.98 C99.68 158.25, 138.23 113.52, 238.65 0.12 M60.1 205.29 C121.1 133.95, 182.13 63.09, 238.83 0.66 M64.01 205.27 C109.84 154.64, 153.87 106.95, 242.68 0.51 M66.14 205.76 C123.13 140.54, 181.1 73.45, 244.28 0.09 M71.69 205.49 C130.19 136.6, 186.6 72.15, 248.42 0.62 M71.42 204.3 C131.96 134.33, 192.52 61.95, 248.41 0.61 M77.01 206.77 C123.87 151.89, 170.53 98.98, 253.49 1.13 M76.44 205.82 C125.92 148.21, 175.83 90.86, 252.05 2.81 M80.29 203.59 C147.82 129.91, 212.26 57.62, 253.42 9.84 M82.05 204.29 C149.65 128.49, 216.75 51.63, 251.76 7.86 M85.45 204.63 C132.43 152.8, 177.35 99.95, 253.98 15.3 M87.32 204.51 C142.07 142.38, 195.93 79.09, 252.16 14.97 M92.71 204.55 C135.81 154.25, 177.64 105.82, 251.7 20.78 M91.51 205.14 C146.38 139.63, 202.74 76.26, 252.84 20.49 M96.12 205.94 C131.28 171.36, 161.77 133.01, 252.19 25.09 M97.09 204.45 C145.37 151.27, 191.51 97.25, 253.6 25.71 M102.16 203.43 C130.83 170.57, 161.97 136.37, 251.8 31.91 M103.47 204.23 C135.37 167.66, 165.58 131.95, 252.43 33.42 M108.01 206.65 C153.13 153.89, 198.32 103.97, 252.07 37.69 M108.22 204.28 C152.08 153.4, 198 101.66, 251.9 38.94 M113.25 203.48 C152.81 163.46, 187.89 119.12, 250.93 44.07 M114.17 204.72 C147.25 167.81, 181.03 129.18, 252.11 44.32 M118.21 203.93 C163.81 153.87, 207.45 100.38, 251.23 49.9 M119 205.16 C144.79 173.4, 173.51 141.59, 252.12 50.44 M125.3 203.49 C156.7 167.84, 191.32 126.29, 251.18 56.33 M123.22 204.5 C153.95 171.96, 183.39 137.29, 252.76 56.88 M128.92 203.71 C169.14 159.22, 207.14 114.19, 254.17 62.39 M128.37 205.66 C165.99 160.37, 204.36 115.43, 253.27 62.48 M133.2 206.13 C170.98 167.88, 203.74 126.88, 253.09 70.47 M133.22 205.78 C163.28 172.01, 192.03 136.88, 251.86 69.47 M140.86 203.54 C162.91 175.79, 187.58 145.03, 252.87 73.26 M140.17 204.92 C169.28 172.98, 197.04 139.99, 251.85 76.09 M143.85 205.88 C179.53 162.86, 212.98 123.82, 252.33 79.81 M144.06 206.1 C175.99 169, 206.41 132.75, 251.62 80.81 M148.6 206.2 C180.91 171.88, 209.37 139.82, 252.78 86.28 M151.4 205.25 C187.57 163.13, 224.94 120.98, 253.27 86.98 M154.83 206.67 C183.03 175.65, 209.75 143.61, 252.82 94 M155.18 205.26 C177.91 180.05, 199.52 154.68, 253.33 92.94 M160.73 204.58 C183.47 179.05, 205.43 153.81, 252.85 100.12 M162.03 203.94 C184.32 177.45, 209.53 148.94, 251.35 100.7 M165.75 206.39 C195.96 171.27, 225.09 135.75, 253.17 103.95 M167.04 206.06 C186.99 180.55, 207.68 156.87, 251.94 106.18 M171.83 205.61 C199.25 174.12, 224.72 143.98, 251.97 113.17 M170.99 205.3 C194.67 176.36, 218.99 148.23, 252.83 111.54 M178.19 204.94 C194.02 184.87, 209.04 165.08, 253.97 118.58 M177.1 204.29 C192.66 188.37, 208.31 170.92, 253.42 117.82 M182.51 206.18 C205.1 180.43, 230.46 150.75, 253.09 124.1 M182.25 204.61 C201.2 181.45, 223.2 157.56, 251.53 125.04 M187.75 204.25 C206.35 184.95, 223.58 162.45, 253.15 129.53 M187.8 204.76 C207.1 183.86, 226.13 160.71, 252.04 130.9 M191.36 205.2 C208.19 185.25, 224.93 169.34, 253.8 136.8 M192.76 204.18 C215.37 179.11, 238.23 153.36, 252.89 137.02 M196.03 204.21 C213.78 186.92, 227.82 172.43, 252.63 144.21 M198.6 205.26 C209.91 191.57, 220.79 177.92, 253.09 143.22 M202.97 203.57 C215.74 191.83, 229.49 175.46, 253.7 149.18 M204.47 205.3 C222.28 183.44, 239.57 162.99, 253.36 148.25 M206.62 206.72 C221.2 187.83, 235.34 169.61, 254.33 154.27 M207.96 204.58 C222 190.2, 237.14 173.96, 252.85 153.82 M215.93 204.21 C224.35 193.97, 229.07 187.93, 253.71 161.91 M214.34 204.27 C229.78 186.95, 243.97 168.96, 251.75 161.3 M221.11 203.71 C232.23 189.49, 244.35 174.17, 250.86 164.63 M219.32 204.53 C228.41 194.52, 238.89 181.45, 253.29 166.01 M222.84 204.01 C232.19 197.43, 237.47 191.85, 250.75 171.38 M224.31 204.39 C233.46 194.38, 240.83 185.03, 251.81 173.46 M231.09 205.06 C233.41 201.24, 238.11 195.38, 252.81 178.19 M229.14 205.89 C237.81 195.44, 244.36 188.47, 253.34 178.08 M233.64 206.65 C241.5 198.23, 248.48 191.92, 253.75 186.25 M234.69 204.71 C239.76 199.72, 242.18 196.74, 252.35 185.27 M241.99 206.53 C244.69 199.81, 246.57 197.97, 252.13 192.5 M240.84 204.53 C243.81 201.22, 247.26 197.58, 252.32 192.02 M245.88 204.36 C248.76 201.67, 250.42 199.01, 253.57 196.74 M245.05 205.19 C247.79 202.24, 251.21 198.76, 252.2 197.34" stroke="#868e96" stroke-width="0.5" fill="none"></path><path d="M0.4 -0.53 C55.9 -2.18, 110.39 -2.55, 250.86 -1.02 M0.71 0.42 C91 -0.89, 183.03 -0.12, 250.33 -0.51 M249.61 0.46 C248.45 51.48, 247.84 104.65, 249.06 204.13 M251 -0.84 C250.31 41.01, 251.66 82.7, 250.91 203.43 M249.09 204.33 C153.7 203.09, 59.82 205.19, 0.27 203.67 M250.35 203.35 C193.08 202, 133.9 201.43, -0.72 203.84 M-0.51 205.13 C1.08 122.55, 0.84 41.71, 1.19 0.97 M-0.86 203.9 C0.44 158.97, 0.74 114.04, 0.69 -0.26" stroke="#000000" stroke-width="1" fill="none"></path></g><g transform="translate(125.81640625 312.306640625) rotate(0 52 12.5)"><text x="52" y="18" font-family="Virgil, Segoe UI Emoji" font-size="20px" fill="#000000" text-anchor="middle" style="white-space: pre;" direction="ltr">Disk Index</text></g><g transform="translate(97.34765625 146.064453125) rotate(0 79 12.5)"><text x="79" y="18" font-family="Virgil, Segoe UI Emoji" font-size="20px" fill="#000000" text-anchor="middle" style="white-space: pre;" direction="ltr">In-memory Index</text></g><g transform="translate(432.583984375 10) rotate(0 93.5 12.5)"><text x="0" y="18" font-family="Virgil, Segoe UI Emoji" font-size="20px" fill="#000000" text-anchor="start" style="white-space: pre;" direction="ltr">Indexing documents</text></g><g stroke-linecap="round"><g transform="translate(759.8075128587428 154.51028653031904) rotate(0 -231.86211212581952 3.698671953519522)"><path d="M-0.36 0.43 C-77.98 1.82, -387.28 6.81, -464.74 7.79 M1.65 -0.39 C-76.17 0.71, -387.47 4.84, -465.37 6.13" stroke="#000000" stroke-width="1" fill="none"></path></g><g transform="translate(759.8075128587428 154.51028653031904) rotate(0 -231.86211212581952 3.698671953519522)"><path d="M-436.61 -3.54 C-446.61 -0.14, -459.77 4.95, -466.3 7.89 M-437.1 -3.67 C-445.24 -1.87, -453.03 0.71, -465.69 5.16" stroke="#000000" stroke-width="1" fill="none"></path></g><g transform="translate(759.8075128587428 154.51028653031904) rotate(0 -231.86211212581952 3.698671953519522)"><path d="M-436.31 16.98 C-446.33 12.55, -459.61 9.81, -466.3 7.89 M-436.8 16.85 C-445.12 12.97, -452.99 9.88, -465.69 5.16" stroke="#000000" stroke-width="1" fill="none"></path></g></g><g stroke-linecap="round" transform="translate(643.654296875 296.8671875) rotate(0 49.59406293972944 22.571335095991458)"><path d="M-0.87 20.45 C-0.87 20.45, -0.87 20.45, -0.87 20.45 M-0.87 20.45 C-0.87 20.45, -0.87 20.45, -0.87 20.45 M0.25 22.41 C6.4 18.52, 9.1 17.13, 13.05 8.85 M1.01 23.24 C4.51 20.57, 7.03 16.61, 14.75 9.2 M1.49 27.85 C10.26 21.42, 17.77 14.93, 22.42 7.63 M3.8 28.88 C8.83 22.54, 13.08 16.3, 21.7 8.55 M5.07 29.51 C10.17 22.67, 19.53 16.4, 27.32 3.2 M4.75 31.87 C11.36 24.95, 17.01 18.71, 28.61 3.96 M8.17 35.45 C18.22 21.25, 29.02 10.81, 35.42 3.28 M7.93 35.01 C13.01 27.72, 18.17 21.84, 36.38 2.57 M12.18 35.42 C19.68 25.95, 31.65 14.37, 41.91 2.02 M11.35 35.97 C20.06 25.51, 29.42 16.37, 41.16 1.11 M14.6 37.31 C23.38 26.67, 31.58 18.89, 47.43 2.17 M14.97 37.69 C25.74 27.46, 33.51 15.86, 46.36 2.1 M18.43 37.65 C27.61 31.02, 34 23.01, 52.72 4.12 M20.05 38.96 C29.51 29.15, 38.98 17.33, 51.3 2.87 M23.4 41.81 C35.6 29.38, 46.4 13.99, 55.98 0.87 M24.42 40.62 C32.96 29.89, 42.87 19.66, 56.57 2.56 M28.76 42.06 C36.05 33.28, 41.79 27.11, 63.59 3.57 M27.2 41.58 C39.81 26.96, 52.26 13.28, 62.74 1.65 M30.48 43.54 C39.02 33.22, 49.15 26.11, 67.3 -0.54 M32.09 42.78 C45.07 28.72, 57.68 14.94, 69.61 1.9 M37.38 44.75 C49.16 29.8, 61.5 17.49, 71.11 2.47 M37.4 43.75 C49.2 29.42, 61.92 15.2, 72.98 2.92 M43.71 44.83 C52.72 35.13, 59.56 22.11, 75.69 6.84 M42.74 43.84 C49.25 36.95, 56.88 28.87, 75.18 5.84 M46.54 46.05 C53.47 36.11, 63.14 27.94, 81.88 4.93 M46.29 44.69 C53.79 36.03, 62.45 28.57, 80.5 7.13 M53.04 46.54 C61.93 33.76, 73.47 22.67, 82.66 7.29 M52.2 45.02 C58.51 35.82, 65.95 27.77, 83.19 8.57 M56.5 44.31 C65.5 35.08, 71.86 26.64, 87.11 10.04 M56.52 44.6 C68.41 31.97, 80.67 18.19, 87.41 10.75 M60.35 45.25 C69.6 36.65, 74.65 26.85, 90.45 9.18 M61.26 46.28 C73.13 35.05, 83.26 21.98, 91.26 11.3 M68.78 44.11 C79.76 30.78, 87.81 20.84, 95.38 15.62 M69 42.93 C75.5 36.99, 80.27 29.78, 94.16 13.95 M78.17 42.29 C84.03 34.56, 90.84 25.32, 96.69 17.87 M76.33 41.29 C82.25 34.47, 87.85 26.71, 97.42 17.23 M83.63 39.8 C86.51 34.04, 90.15 29.4, 96.64 22.8 M84.38 37.87 C89.65 33.15, 93.38 27.31, 97.61 21.23" stroke="#868e96" stroke-width="0.5" fill="none"></path><path d="M67.34 0.67 C76.47 1.86, 87.1 6.91, 92.29 11 C97.48 15.08, 99.23 20.87, 98.47 25.18 C97.71 29.5, 93.9 33.59, 87.73 36.87 C81.56 40.16, 70.94 43.83, 61.46 44.9 C51.98 45.97, 39.95 45.05, 30.83 43.27 C21.72 41.5, 12.03 38.1, 6.78 34.26 C1.54 30.41, -1.55 24.56, -0.66 20.2 C0.23 15.85, 5.45 11.56, 12.11 8.13 C18.77 4.7, 29.26 0.47, 39.28 -0.37 C49.3 -1.2, 66.57 2.43, 72.22 3.1 C77.88 3.76, 73.9 3.32, 73.22 3.6 M57.72 0.68 C67 0.97, 77.85 3.8, 84.56 6.69 C91.26 9.58, 96.63 13.75, 97.97 18.02 C99.31 22.29, 96.94 28.02, 92.59 32.32 C88.24 36.61, 80.4 41.63, 71.85 43.79 C63.3 45.96, 50.9 46.13, 41.28 45.31 C31.67 44.5, 20.91 42.44, 14.18 38.9 C7.45 35.35, 2.48 28.58, 0.93 24.04 C-0.61 19.51, 0.16 15.48, 4.91 11.69 C9.65 7.9, 20.64 3.32, 29.42 1.3 C38.2 -0.72, 53.17 -0.43, 57.59 -0.43 C62.01 -0.44, 56.25 0.73, 55.94 1.28" stroke="#000000" stroke-width="1" fill="none"></path></g><g stroke-linecap="round" transform="translate(646.8376370892636 393.0489721646593) rotate(0 49.59406293972944 22.571335095991458)"><path d="M-0.63 20.65 C-0.63 20.65, -0.63 20.65, -0.63 20.65 M-0.63 20.65 C-0.63 20.65, -0.63 20.65, -0.63 20.65 M0.09 22.69 C6.77 17.31, 10.1 13.78, 15.21 8.82 M0.81 24.78 C6.28 19.07, 11.66 13.18, 14.06 9.08 M4.36 25.45 C8.56 22.71, 14.45 16.07, 19.95 6.95 M3.65 27.54 C7.16 24, 11.19 18.82, 20.41 8.01 M6.6 30.72 C13.1 22.71, 21.19 12.03, 26.77 4.53 M5.7 30.38 C12.3 24.75, 17.55 17.05, 27.83 5.07 M8.76 34.11 C17.6 24.01, 22.9 15.66, 38.58 2.05 M8.69 33.22 C15.42 26.89, 21.99 17.82, 37.65 1.29 M14.02 35.91 C21.44 24.44, 34.86 10.22, 42.88 2.47 M12.77 36.36 C22.41 24.71, 31.22 15.04, 43.01 1.96 M14.84 37.56 C26.79 26.56, 37.33 15.03, 46.93 1.82 M16.53 37.08 C25.07 26.3, 35.91 15.57, 47.99 1.27 M20.86 41.11 C28.43 31.4, 34.62 19.3, 51.91 0.53 M18.94 39.06 C26.45 30.49, 34.37 21.94, 51.78 1.58 M21.58 42.73 C34.49 28.39, 44.39 16.05, 58.86 1.14 M24.01 41.93 C33.46 29.6, 43.46 18.56, 58.63 1.21 M26.39 44.72 C41.56 29.68, 54.66 12.6, 62.73 2.59 M26.83 43.28 C36.03 31.41, 47.13 21.23, 63.86 2.67 M32.56 43.51 C38.3 35.46, 49.85 24.6, 68.3 3.67 M31.57 44.59 C44.01 29.45, 57.31 15.39, 67.86 2.16 M35.18 43.4 C48.27 28.59, 62.3 13.54, 70.94 2.81 M37.39 45.05 C48.86 29.61, 61.73 16.97, 72.73 3.3 M40.66 44.06 C55.85 28.5, 69.85 13.52, 74.54 3.81 M41.94 45.06 C48.05 37.4, 55.32 29, 76.32 4.92 M46.52 47.55 C55.31 37.17, 59.72 27.95, 80.16 7.09 M47.23 45.18 C56.94 34.93, 65.69 22.36, 80.84 6.27 M50.19 46.03 C57.96 38.28, 64.58 31.11, 86.78 9.46 M52.31 45.91 C66.01 31.6, 77.64 16.49, 85.59 6.78 M58.99 44.08 C66.62 33.65, 75.72 22.83, 89.27 9.84 M57.33 45.97 C64.17 36.13, 73.72 28.58, 88.95 9.86 M62.75 45.35 C73.52 32.86, 83.17 21.75, 92.32 11.03 M62.12 44.96 C70.25 38.3, 75.48 30.98, 92.31 10.54 M70.51 44.39 C76.51 35.71, 81.7 29.14, 95.91 15.23 M68.93 43.2 C74.61 37.04, 81.53 29.79, 95.55 15.13 M77.21 40.14 C82.34 37.63, 85.94 33.35, 98.46 19.21 M77.11 41.21 C81.09 36.27, 85.94 29.84, 96.16 18.28 M83 40.14 C88.64 35.49, 90.6 32.53, 97.67 23.16 M84.35 39.93 C88.66 33.43, 94.7 26.3, 98.1 21.88" stroke="#868e96" stroke-width="0.5" fill="none"></path><path d="M36.95 1.11 C45.68 -0.11, 58.77 0.41, 68.05 1.93 C77.32 3.45, 87.3 6.42, 92.6 10.24 C97.89 14.07, 100.87 20.43, 99.81 24.88 C98.74 29.33, 92.72 33.78, 86.22 36.94 C79.73 40.11, 70.33 42.8, 60.82 43.88 C51.31 44.97, 38.07 45.3, 29.17 43.45 C20.27 41.61, 12.35 36.67, 7.43 32.82 C2.51 28.97, -1.17 24.45, -0.36 20.33 C0.45 16.22, 4.53 11.56, 12.28 8.11 C20.02 4.66, 39.16 1.05, 46.13 -0.36 C53.1 -1.77, 54.17 -0.89, 54.08 -0.33 M41.4 -0.88 C50.94 -2.2, 65.06 -0.83, 73.97 1.61 C82.88 4.05, 90.93 9.63, 94.87 13.74 C98.8 17.85, 99.65 22.08, 97.6 26.26 C95.56 30.45, 89.74 35.86, 82.59 38.85 C75.44 41.84, 64.46 43.7, 54.7 44.22 C44.95 44.75, 32.38 44.27, 24.04 42.01 C15.7 39.75, 8.5 34.49, 4.64 30.65 C0.79 26.8, -1.05 22.97, 0.92 18.94 C2.9 14.92, 9.71 9.7, 16.51 6.49 C23.31 3.29, 37.59 0.71, 41.71 -0.27 C45.84 -1.25, 40.94 0.05, 41.24 0.61" stroke="#000000" stroke-width="1" fill="none"></path></g><g stroke-linecap="round"><g transform="translate(646.4641385212939 321.50849371641425) rotate(0 0.7567290016003199 45.798167648881304)"><path d="M-0.22 1.15 C0.14 16.21, 2.82 75.11, 3.31 89.93 M-1.8 0.7 C-1.73 15.92, 1.05 75.86, 2.21 90.9" stroke="#000000" stroke-width="1" fill="none"></path></g></g><g stroke-linecap="round"><g transform="translate(742.0374381523861 320.29767244444383) rotate(0 2.04423260735075 45.1671882434307)"><path d="M0.09 -0.04 C0.62 15.19, 2.48 76.39, 3.01 91.44 M-1.32 -1.11 C-0.38 13.74, 4.8 74.15, 5.41 89.54" stroke="#000000" stroke-width="1" fill="none"></path></g></g><g stroke-linecap="round"><g transform="translate(806.0870624642337 202.2267765893796) rotate(313.34684523368185 -81.34233091398119 27.290449030285004)"><path d="M0.59 -1.09 C-26.64 8.12, -135.1 46.42, -162.56 55.67 M-0.57 0.95 C-27.98 9.76, -136.39 44.75, -163.27 53.81" stroke="#000000" stroke-width="1" fill="none"></path></g><g transform="translate(806.0870624642337 202.2267765893796) rotate(313.34684523368185 -81.34233091398119 27.290449030285004)"><path d="M-141.52 36.01 C-147.43 40.25, -158.15 49.26, -165.11 54.4 M-138.94 36.17 C-147.73 42.21, -157.55 49.66, -162.28 53.8" stroke="#000000" stroke-width="1" fill="none"></path></g><g transform="translate(806.0870624642337 202.2267765893796) rotate(313.34684523368185 -81.34233091398119 27.290449030285004)"><path d="M-135.11 55.51 C-143.43 52.65, -156.49 54.52, -165.11 54.4 M-132.53 55.67 C-143.52 54.41, -155.73 54.58, -162.28 53.8" stroke="#000000" stroke-width="1" fill="none"></path></g></g><g transform="translate(430.669921875 124.42578125) rotate(0 66.5 12.5)"><text x="0" y="18" font-family="Virgil, Segoe UI Emoji" font-size="20px" fill="#000000" text-anchor="start" style="white-space: pre;" direction="ltr">add &amp; commit</text></g><g stroke-linecap="round" transform="translate(747.669921875 133.7734375) rotate(0 22.333984375 21.912109375)"><path d="M30.75 1.77 C35.06 3.13, 40.39 7.63, 42.59 11.89 C44.8 16.16, 45.13 22.63, 43.99 27.35 C42.84 32.06, 39.49 37.33, 35.75 40.2 C32 43.06, 26.15 45.03, 21.52 44.54 C16.89 44.04, 11.63 40.51, 7.96 37.23 C4.29 33.94, 0.27 29.31, -0.5 24.85 C-1.27 20.39, 0.61 14.49, 3.34 10.44 C6.06 6.39, 10.52 1.6, 15.85 0.56 C21.19 -0.48, 31.5 3.08, 35.33 4.19 C39.16 5.31, 39.18 7.03, 38.81 7.26 M27.7 0.86 C32.08 1.96, 39.35 7.36, 41.94 11.31 C44.53 15.25, 43.93 20.16, 43.25 24.53 C42.57 28.9, 41.19 34.12, 37.86 37.53 C34.54 40.94, 28.31 44.72, 23.3 45.01 C18.28 45.3, 11.47 42.35, 7.78 39.27 C4.1 36.19, 2.02 31.25, 1.2 26.52 C0.38 21.79, 0.62 15.19, 2.88 10.87 C5.14 6.55, 10.27 2.1, 14.77 0.59 C19.28 -0.91, 27.62 1.64, 29.91 1.84 C32.2 2.05, 28.56 1.76, 28.52 1.82" stroke="none" stroke-width="0" fill="#228be6"></path><path d="M28.26 1.34 C32.84 2.35, 38.71 6.82, 41.51 10.56 C44.31 14.3, 45.77 19.38, 45.06 23.77 C44.34 28.16, 40.85 33.62, 37.21 36.9 C33.56 40.18, 27.79 43.04, 23.19 43.43 C18.6 43.82, 13.25 42.16, 9.64 39.26 C6.02 36.35, 2.63 30.53, 1.51 26 C0.39 21.47, 0.95 16.09, 2.91 12.08 C4.86 8.06, 8.62 3.75, 13.22 1.91 C17.83 0.07, 27.64 0.97, 30.56 1.04 C33.47 1.11, 30.95 1.95, 30.73 2.32 M17.53 0.74 C22.07 -0.69, 28.75 0.63, 33.14 2.84 C37.53 5.05, 42.21 9.89, 43.87 13.98 C45.53 18.08, 44.4 23.01, 43.09 27.43 C41.79 31.85, 40.05 37.93, 36.06 40.5 C32.06 43.07, 23.82 43.41, 19.12 42.85 C14.42 42.3, 10.91 40.14, 7.86 37.16 C4.82 34.18, 1.56 29.78, 0.84 24.97 C0.13 20.17, 1.2 12.2, 3.58 8.33 C5.96 4.47, 12.92 2.95, 15.12 1.79 C17.33 0.63, 16.65 0.95, 16.81 1.37" stroke="#1864ab" stroke-width="1" fill="none"></path></g><g transform="translate(765.73828125 140.361328125) rotate(0 4 17.5)"><text x="4" y="25" font-family="Virgil, Segoe UI Emoji" font-size="28px" fill="#000000" text-anchor="middle" style="white-space: pre;" direction="ltr">1</text></g><g stroke-linecap="round" transform="translate(454.9921875 386.427734375) rotate(0 22.333984375 21.912109375)"><path d="M29.9 1.51 C34.39 2.64, 39.99 6.55, 42.5 10.42 C45.01 14.3, 45.9 20.06, 44.95 24.73 C44.01 29.41, 40.41 35.17, 36.82 38.47 C33.22 41.77, 28.18 44.35, 23.4 44.53 C18.62 44.7, 12.14 42.79, 8.14 39.53 C4.14 36.27, 0.19 29.54, -0.59 24.95 C-1.38 20.37, 0.9 16.03, 3.43 12.03 C5.95 8.02, 9.35 2.29, 14.54 0.92 C19.72 -0.45, 30.6 2.7, 34.53 3.81 C38.46 4.92, 38.33 7.43, 38.11 7.58 M15.8 2.32 C20.1 0.62, 27.68 0.52, 32.3 1.98 C36.91 3.44, 41.58 6.79, 43.5 11.09 C45.43 15.38, 45.23 22.88, 43.85 27.78 C42.47 32.67, 38.97 37.91, 35.22 40.45 C31.48 42.99, 26.23 43.48, 21.36 43.01 C16.5 42.54, 9.79 40.86, 6.03 37.63 C2.26 34.41, -0.71 28.54, -1.24 23.67 C-1.76 18.8, -0.14 12.16, 2.88 8.38 C5.9 4.6, 14.51 2.38, 16.91 0.99 C19.3 -0.41, 17.28 -0.25, 17.26 0.01" stroke="none" stroke-width="0" fill="#228be6"></path><path d="M23.61 0.03 C28.02 -0.15, 33.97 2.6, 37.33 5.62 C40.7 8.64, 43.29 13.32, 43.78 18.13 C44.27 22.95, 42.59 30.34, 40.27 34.51 C37.96 38.68, 34.48 42.06, 29.91 43.17 C25.34 44.28, 17.57 42.99, 12.86 41.16 C8.15 39.33, 3.81 36.31, 1.65 32.2 C-0.5 28.08, -1.12 21.09, -0.1 16.46 C0.93 11.83, 3.06 7.12, 7.8 4.41 C12.53 1.69, 24.18 0.53, 28.32 0.19 C32.46 -0.14, 32.86 1.92, 32.63 2.38 M26.9 -0.24 C30.98 0.76, 36.3 5.24, 39.47 9.22 C42.64 13.2, 46.08 18.72, 45.91 23.65 C45.74 28.59, 42.22 35.54, 38.44 38.85 C34.67 42.15, 28 43.27, 23.28 43.46 C18.55 43.66, 13.97 42.56, 10.1 40.02 C6.24 37.48, 1.16 32.71, 0.08 28.21 C-1 23.71, 1.22 17.39, 3.61 13.04 C6.01 8.68, 10.38 3.88, 14.45 2.09 C18.52 0.3, 25.72 2.6, 28.03 2.29 C30.35 1.99, 28.34 0.05, 28.37 0.26" stroke="#1864ab" stroke-width="1" fill="none"></path></g><g transform="translate(467.060546875 393.015625) rotate(0 10 17.5)"><text x="10" y="25" font-family="Virgil, Segoe UI Emoji" font-size="28px" fill="#000000" text-anchor="middle" style="white-space: pre;" direction="ltr">2</text></g><g stroke-linecap="round"><g transform="translate(646.1422535171104 394.94683714319854) rotate(0 -172.74953998104812 -14.341254903593153)"><path d="M0.71 -0.99 C-56.73 -6.05, -287.64 -24.96, -345.39 -29.79 M-0.38 1.11 C-57.89 -3.81, -288.5 -23.34, -346.21 -28.34" stroke="#000000" stroke-width="1" fill="none"></path></g><g transform="translate(646.1422535171104 394.94683714319854) rotate(0 -172.74953998104812 -14.341254903593153)"><path d="M-318.89 -35.74 C-324.34 -34.35, -331.58 -31.81, -346.53 -26.81 M-318.02 -35.2 C-323.7 -34.67, -331.68 -32.98, -346.6 -28.74" stroke="#000000" stroke-width="1" fill="none"></path></g><g transform="translate(646.1422535171104 394.94683714319854) rotate(0 -172.74953998104812 -14.341254903593153)"><path d="M-320.64 -15.29 C-325.78 -18.77, -332.6 -21.09, -346.53 -26.81 M-319.76 -14.76 C-325 -19.42, -332.54 -22.94, -346.6 -28.74" stroke="#000000" stroke-width="1" fill="none"></path></g></g><g transform="translate(435.806640625 346.75) rotate(4.991683865807449 49.5 12.5)"><text x="0" y="18" font-family="Virgil, Segoe UI Emoji" font-size="20px" fill="#000000" text-anchor="start" style="white-space: pre;" direction="ltr">move docs</text></g><g stroke-linecap="round" transform="translate(429.04296875 220.228515625) rotate(0 22.333984375 21.912109375)"><path d="M19.81 0.88 C24.28 -0.03, 30.82 0.56, 34.79 2.82 C38.76 5.09, 42.21 9.87, 43.65 14.5 C45.09 19.13, 45.4 26.15, 43.46 30.62 C41.51 35.09, 36.29 39.19, 31.98 41.34 C27.68 43.49, 22.09 44.54, 17.61 43.51 C13.13 42.48, 7.99 38.76, 5.11 35.17 C2.22 31.58, 0.27 26.58, 0.29 21.96 C0.31 17.35, 1.93 11.14, 5.22 7.47 C8.51 3.8, 17.48 1.01, 20.03 -0.07 C22.59 -1.15, 20.46 0.61, 20.53 1 M23.4 -0.48 C27.76 -0.54, 33.23 1.92, 36.84 5.1 C40.45 8.28, 44.19 14.19, 45.07 18.58 C45.95 22.97, 44.43 27.29, 42.13 31.43 C39.83 35.57, 35.73 41.69, 31.29 43.41 C26.84 45.13, 20.06 43.44, 15.45 41.75 C10.83 40.07, 5.92 37.35, 3.59 33.32 C1.25 29.28, 0.55 22.2, 1.42 17.54 C2.29 12.89, 5.34 8.13, 8.82 5.37 C12.29 2.62, 20.04 1.84, 22.25 1 C24.46 0.16, 22.05 -0.08, 22.11 0.32" stroke="none" stroke-width="0" fill="#228be6"></path><path d="M27.4 -0.06 C31.7 0.74, 37.06 4.44, 39.94 8.51 C42.82 12.59, 45.08 19.67, 44.69 24.37 C44.29 29.07, 41.11 33.41, 37.57 36.69 C34.04 39.97, 28.28 43.61, 23.48 44.05 C18.69 44.5, 12.65 42.16, 8.79 39.37 C4.93 36.58, 1.42 31.64, 0.31 27.3 C-0.8 22.96, -0.1 17.7, 2.12 13.33 C4.33 8.97, 8.42 2.77, 13.59 1.11 C18.75 -0.56, 28.89 2.56, 33.1 3.35 C37.3 4.14, 39.07 5.47, 38.84 5.85 M27.96 1.14 C32.5 2.13, 38.71 5.08, 41.22 8.81 C43.74 12.55, 43.57 18.94, 43.04 23.54 C42.5 28.14, 41.02 32.8, 38.02 36.42 C35.02 40.03, 30.09 44.74, 25.03 45.22 C19.98 45.71, 11.82 42.2, 7.7 39.32 C3.59 36.44, 1 32.45, 0.33 27.95 C-0.34 23.44, 1.71 16.83, 3.68 12.3 C5.66 7.76, 7.92 2.85, 12.18 0.73 C16.45 -1.4, 26.72 -0.7, 29.29 -0.46 C31.86 -0.23, 27.88 1.36, 27.59 2.14" stroke="#1864ab" stroke-width="1" fill="none"></path></g><g transform="translate(441.611328125 226.81640625) rotate(0 9.5 17.5)"><text x="9.5" y="25" font-family="Virgil, Segoe UI Emoji" font-size="28px" fill="#000000" text-anchor="middle" style="white-space: pre;" direction="ltr">3</text></g><g stroke-linecap="round"><g transform="translate(423.76195179012825 236.42021321348375) rotate(0 -66.60791993631625 -27.86415129706495)"><path d="M1.17 0.58 C-21.12 -8.6, -112.16 -45.17, -134.38 -54.3 M0.32 -0.17 C-21.55 -9.79, -110.15 -46.94, -132.27 -56.3" stroke="#000000" stroke-width="1" fill="none"></path></g><g transform="translate(423.76195179012825 236.42021321348375) rotate(0 -66.60791993631625 -27.86415129706495)"><path d="M-101.35 -56.72 C-109.25 -53.1, -116.35 -53.94, -133.44 -57.43 M-103.18 -54.73 C-111.1 -54.66, -122.26 -55.38, -131.66 -55.92" stroke="#000000" stroke-width="1" fill="none"></path></g><g transform="translate(423.76195179012825 236.42021321348375) rotate(0 -66.60791993631625 -27.86415129706495)"><path d="M-109.32 -37.8 C-115.39 -38.88, -120.55 -44.33, -133.44 -57.43 M-111.14 -35.82 C-116.35 -41.85, -124.92 -48.7, -131.66 -55.92" stroke="#000000" stroke-width="1" fill="none"></path></g></g><g stroke-linecap="round"><g transform="translate(478.6376487808591 258.7038382786784) rotate(0 82.76809833295405 35.539801732875674)"><path d="M0.98 -1.15 C28.38 10.78, 137.94 60.12, 165.5 72.23 M0.03 0.86 C27.17 12.41, 136.82 59.24, 164.47 70.66" stroke="#000000" stroke-width="1" fill="none"></path></g><g transform="translate(478.6376487808591 258.7038382786784) rotate(0 82.76809833295405 35.539801732875674)"><path d="M132.59 68.89 C147.93 70.64, 158.46 70.89, 163.71 70.22 M133.98 68.26 C140.49 70.04, 147.54 70.08, 164.15 71.55" stroke="#000000" stroke-width="1" fill="none"></path></g><g transform="translate(478.6376487808591 258.7038382786784) rotate(0 82.76809833295405 35.539801732875674)"><path d="M140.55 49.98 C152.89 59.16, 160.32 66.79, 163.71 70.22 M141.95 49.35 C146.69 55.31, 151.96 59.57, 164.15 71.55" stroke="#000000" stroke-width="1" fill="none"></path></g></g><g transform="translate(375.185546875 198.83984375) rotate(20.77182704734956 24 12.5)"><text x="0" y="18" font-family="Virgil, Segoe UI Emoji" font-size="20px" fill="#000000" text-anchor="start" style="white-space: pre;" direction="ltr">clear</text></g><g transform="translate(525.826171875 255.4492187500001) rotate(20.77182704734956 24 12.5)"><text x="0" y="18" font-family="Virgil, Segoe UI Emoji" font-size="20px" fill="#000000" text-anchor="start" style="white-space: pre;" direction="ltr">clear</text></g><g transform="translate(658.455078125 358.078125) rotate(0 38 10)"><text x="0" y="14" font-family="Virgil, Segoe UI Emoji" font-size="16px" fill="#000000" text-anchor="start" style="white-space: pre;" direction="ltr">doc store</text></g></svg>