<svg version="1.1" xmlns="http://www.w3.org/2000/svg" viewBox="0 0 374.23828125 417.16406250000006" width="748.4765625" height="834.3281250000001">
  <!-- svg-source:excalidraw -->
  
  <defs>
    <style>
      @font-face {
        font-family: "Virgil";
        src: url("https://excalidraw.com/Virgil.woff2");
      }
      @font-face {
        font-family: "Cascadia";
        src: url("https://excalidraw.com/Cascadia.woff2");
      }
    </style>
  </defs>
  <rect x="0" y="0" width="374.23828125" height="417.16406250000006" fill="#ffffff"></rect><g stroke-linecap="round" transform="translate(10 10) rotate(0 177.119140625 198.58203125000003)"><path d="M-0.82 -0.54 C81.69 2.24, 160.12 2.71, 355.29 -0.44 M-0.35 0.1 C72.01 -1.74, 143.17 -1.02, 353.63 0.42 M354.93 -0.04 C354.32 142.31, 352.61 284.85, 353.75 398.18 M354.08 -0.12 C354.25 96.81, 353.51 193.76, 354.14 396.65 M353.74 395.99 C273.14 395.82, 192.19 396.66, -1.05 398.01 M354.4 396.81 C263.56 397.41, 173.5 397.17, 0.15 397.67 M-0.19 397.34 C-0.99 238.87, -1.74 81.49, 0.78 -0.45 M-0.4 397.01 C-1.54 294.89, -1.14 194.1, -0.02 -0.06" stroke="#000000" stroke-width="1" fill="none"></path></g><g transform="translate(144.07421875 15.71484375) rotate(0 23.5 12.5)"><text x="0" y="18" font-family="Virgil, Segoe UI Emoji" font-size="20px" fill="#000000" text-anchor="start" style="white-space: pre;" direction="ltr">index</text></g><g stroke-linecap="round" transform="translate(57.79296875 73.23046875) rotate(0 126.81640625000003 39.279296875)"><path d="M0 0 C0 0, 0 0, 0 0 M0 0 C0 0, 0 0, 0 0 M0.38 6.21 C0.41 5.41, 2.75 3.06, 4.54 -0.03 M-0.61 6.49 C1.2 4.62, 2.49 3.29, 5.2 0.74 M-1.05 11.6 C3.08 10.03, 5.86 8.1, 9.12 1.44 M-0.28 12.74 C4.1 7.93, 6.84 2.88, 11.03 -0.8 M-1.13 19.76 C6.32 12.71, 7.4 7.48, 15.7 1.54 M0.7 18.98 C4.03 15.59, 6.11 11.71, 15.95 0.22 M-0.8 22.61 C6.72 17.93, 14.75 8.36, 21.13 1.35 M1.2 24.43 C6.41 16.85, 12.35 10.07, 20.49 0.1 M0.4 30.82 C5.27 23.96, 12.33 16.39, 24.87 -1.14 M-0.49 30.91 C5.82 24.81, 10.46 18.4, 26.56 -0.13 M-0.7 36.77 C8.57 26.08, 16.54 13.91, 31.55 0.6 M-0.11 36.89 C6.54 27.85, 14.75 21.09, 32.56 0.79 M-1.15 40.72 C7.85 35.41, 15.54 26.53, 37.29 -0.05 M0.58 41.88 C11.41 28.01, 24.68 14.44, 36.16 0.22 M-1.82 49.07 C11.1 38.03, 21.94 24.17, 42.93 -0.84 M-0.22 48.73 C10.81 36.79, 19.76 25.44, 41.63 -0.46 M1.13 53.06 C16.02 38.65, 31.39 20.26, 48.86 -0.61 M0.23 54.34 C14.77 36.91, 30.91 18.63, 46.54 0.22 M-0.92 62.84 C14.8 43.82, 28.41 27.93, 52.17 -1.37 M0 61.67 C16.75 42.11, 33.82 22.29, 53.01 -0.21 M-0.51 66.17 C18.07 44.93, 38.86 19.4, 57.48 1.78 M-0.92 66.49 C12.35 53.04, 24.57 37.79, 58.49 -0.17 M-0.08 74.69 C14.99 57.16, 30.89 39.78, 62.16 -1.41 M-0.63 73.65 C24.36 45.17, 47.08 19.53, 62.98 0 M-1.21 77.4 C28.32 50.23, 53.27 18.62, 67.07 1.71 M1.41 78.54 C26.61 50.19, 50.84 19.91, 67.81 0.01 M5.85 77.17 C20.89 61.7, 33.63 48.34, 73.83 0.64 M4.92 79.59 C31.52 48.61, 56.6 19.12, 74.86 -0.38 M12.47 78.52 C35.91 50.13, 61.77 20.26, 79.54 -0.23 M11.04 78.11 C26.26 62.05, 41.35 43.44, 79.31 0.7 M14.77 78.87 C36.5 55, 57 33.39, 86.07 0.37 M15.45 79.44 C32.34 58.99, 50.97 38.32, 84.92 -0.89 M21.61 80.45 C37.68 61.25, 51.41 43.42, 90.78 -1.43 M22.42 78.98 C43.3 54.01, 66 29.95, 90.77 0.85 M25.35 80.42 C48.66 52.88, 72.34 23.83, 95.79 -0.62 M27.51 78.2 C52.02 48.26, 79.06 19.04, 96.48 -0.08 M31.1 76.78 C50.69 57.54, 72.16 33.26, 98.71 -1.31 M32.85 78.62 C54.7 55.54, 74.04 30.23, 100.99 0.43 M35.48 78.43 C57.87 60.01, 74.31 38.91, 105.9 1.26 M37.89 79.82 C54.86 57.53, 72.9 37.89, 105.82 0.5 M43.86 79.11 C59.02 55.86, 81.26 36.77, 111.22 -1.27 M42.64 79.46 C63.75 53.25, 87.2 29.01, 111.78 0.37 M49.08 79.48 C68.73 56.1, 90.12 33.34, 116.64 0.36 M48.4 79.25 C67.18 55.91, 86.35 34.37, 115.59 1.06 M52.12 77.78 C76.81 52.97, 100.32 25.36, 122.24 -0.72 M52.41 79.71 C67.71 61.49, 82.82 44.1, 121.92 0.65 M60.06 80.16 C85.21 49.43, 110.26 17.61, 128.24 -1.24 M57.83 78.44 C80.74 51.08, 104.78 25.57, 127.4 0.54 M64.12 78.88 C91.54 46.38, 119.19 15.47, 131.65 -1.07 M63.79 78.33 C86.63 52.57, 110.79 24.44, 133.21 0.2 M68.31 79.07 C90.94 51.24, 117.55 25.52, 136.95 -1.19 M69.98 78.35 C86.24 59.49, 101.28 41.71, 137.88 1.16 M76.1 80.76 C102.06 48.65, 126.5 18.05, 141.38 -1.72 M73.4 79.52 C98.38 52.08, 121.27 25.01, 142.46 -1.01 M79.74 76.81 C101.67 55.83, 119.59 30.17, 149.67 0.11 M79.63 78.92 C97.34 57.75, 116.13 37.71, 147.34 -0.65 M82.97 79.01 C99.6 62.38, 116.19 42.24, 155.32 -0.07 M85.55 79.73 C108.33 51.81, 134.15 23.56, 153.46 -0.04 M90.26 79.97 C109.97 54.54, 129.98 33.59, 159.31 0.25 M90.6 79.13 C106.48 60.75, 122.33 44.04, 159.07 0.59 M93.62 79.22 C111.88 59.87, 129.15 39.27, 163.38 0.46 M95.54 78.41 C110.59 61, 127.36 43.1, 164.99 -0.93 M101.78 77.13 C118.81 58.63, 133.9 41.55, 168.77 -1.18 M101.68 78.91 C115.66 62.15, 128.86 46.36, 169.37 -0.68 M106.98 80.99 C134.16 50.36, 159.33 20.89, 173.47 -1.53 M105.65 80.02 C127.9 54.96, 147.94 31.07, 174.88 -0.73 M110.21 78.9 C137.56 46.48, 163.38 19.41, 178.96 1.42 M112.66 79.21 C125.4 63.14, 140.45 45.75, 179.53 0.98 M115.95 77.91 C142.4 49.7, 170.52 17.42, 187.49 -1.44 M117.19 80.01 C132.99 59.41, 150.7 40.8, 185.89 0.52 M121.44 77.87 C140.32 60.74, 155.43 39.73, 188.79 -0.36 M122.34 78 C143.29 54.76, 163.66 29.25, 189.85 0.05 M127.43 77.58 C148.03 54.02, 170.64 27.68, 197.36 -0.69 M126.46 78.84 C152.61 49.04, 178.65 21.1, 195.85 -0.23 M131.39 76.64 C150.95 57.37, 170.24 37.74, 203.17 -0.92 M132.51 78.23 C156.19 52.53, 177.9 27.96, 201.64 -0.03 M138.32 77.58 C162.58 47.48, 190.62 18.59, 204.97 1.32 M138.75 77.95 C161.07 50.17, 186.19 23.93, 207.54 -1.03 M141.96 79.79 C167.57 48.99, 192.12 20.58, 212.99 -0.68 M143.99 77.84 C167.69 52.11, 189.76 25.55, 211.18 -0.81 M147.54 77.52 C167.53 57.78, 184.83 36.22, 218.23 -0.81 M148.36 79.81 C169.76 54.74, 191.2 31.19, 216.75 -0.93 M153.06 77.91 C177.11 48.01, 203.39 23.03, 223.17 1.96 M154.55 77.8 C178.72 50.06, 202.36 22.45, 221.77 -0.84 M159.99 78.99 C181.75 51.98, 205.33 26.55, 227.05 1.51 M158.58 79.86 C180.54 55.36, 201.19 31.41, 228.29 0.03 M166.59 79.62 C178.54 63.05, 193.2 48.23, 232.61 -1.4 M165 78.05 C184.37 57.02, 202.13 37.02, 233.71 0.34 M170.58 77.57 C185.79 59.35, 205.43 41.42, 238.68 -0.38 M169.71 78.55 C188.85 57.27, 208.13 35.86, 237.3 -0.44 M173.8 80.24 C196.83 54.58, 219.08 27.68, 242.22 -1.17 M174.49 78.31 C193.18 59.76, 211.62 38, 244.3 0.19 M180.21 78.88 C197.12 62.28, 210.33 41.59, 248.34 0.62 M181.05 79.35 C200.5 57.43, 217.81 37.01, 247.89 0.09 M185.92 78.87 C201.94 60.46, 217.26 41.88, 254.25 -1 M185.11 79.01 C201.84 60, 220.37 39.42, 253.17 -0.09 M191.79 78.48 C212.24 55.25, 234.98 30.56, 254.03 5.89 M190.9 78.69 C206.11 61.14, 222.17 43.61, 253.94 5.38 M198.19 78.86 C216.19 55.97, 239.1 29.13, 252.42 11.26 M196.01 79.87 C208.04 66.31, 220.54 51.65, 254.44 13.51 M202.23 78 C220 58.16, 240.05 34.68, 253.66 20.01 M202.55 78.05 C213.31 64.83, 224.73 51.71, 254.25 17.38 M208.52 80.79 C218.85 64.94, 232.6 48.51, 253.48 23.9 M205.98 78.83 C219.11 64.54, 229.74 51.13, 254.25 24.14 M214.43 77 C227.22 63.36, 242.65 46.92, 255.72 32.31 M212.3 77.86 C228.45 61.91, 243.17 44.35, 253.23 31.76 M216.82 79.27 C229.14 63.58, 243.37 50.32, 254.33 38.5 M216.83 78.86 C231.4 64.43, 244.27 50.01, 253.9 37.24 M221.3 77.1 C233.69 68.06, 241.87 57.18, 255.43 41.86 M223.45 79.59 C232.26 67.36, 243.02 56.08, 252.96 42.95 M228.99 78.88 C238.22 68.57, 248.55 55.2, 253.88 50.66 M227.35 79.9 C233.93 71.84, 239.45 65.38, 253.67 49.27 M233.74 77.88 C240.56 70.55, 248.33 65.85, 256.04 56.02 M234.29 77.68 C237.8 74.63, 242.79 69.54, 254.6 54.68 M236.93 78.23 C244.37 72.4, 248.27 69.38, 252.38 62.72 M239.33 78.9 C242.68 73.59, 247.21 70.11, 254.22 62.44 M244.59 77.35 C248.9 75.37, 252.42 72.17, 255.15 67.36 M244.18 79.34 C247.37 74.72, 249.5 72.35, 254.76 66.99 M249.78 78.59 C250.86 77.08, 252.12 75.77, 253.98 73.36 M249.44 79.27 C251.16 77.42, 252.58 75.57, 253.67 73.68" stroke="#40c057" stroke-width="0.5" fill="none"></path><path d="M1.24 0.04 C49.87 1.5, 104.3 0.31, 252.05 -0.43 M0.5 -0.79 C88.47 -0.21, 176.3 0.2, 254.11 -0.22 M254.87 -0.65 C252.37 23.24, 253.25 50.02, 252.52 78.33 M254.1 -0.43 C252.59 25.41, 253.23 51.1, 252.94 79.08 M254.23 78.4 C192.53 77.6, 127.35 77.75, -0.73 79.74 M253.32 78.29 C172.5 76.84, 91.26 78.07, 0.79 79.18 M1.32 77.98 C0.15 50.82, 1.5 21.41, -0.88 1.41 M0.11 77.63 C1.35 59.06, 0.51 37.99, -0.88 -0.18" stroke="#000000" stroke-width="1" fill="none"></path></g><g stroke-linecap="round" transform="translate(61.6015625 176.583984375) rotate(0 125.056640625 101.6953125)"><path d="M0 0 C0 0, 0 0, 0 0 M0 0 C0 0, 0 0, 0 0 M-0.44 5.83 C1.2 5.7, 1.31 3.38, 4.6 0.09 M-0.16 6.44 C0.98 4.76, 2.67 3.41, 5.37 0.05 M-0.31 12.7 C4.36 9.15, 8.66 2.44, 12.1 0.74 M0.83 12.25 C2.58 8.69, 4.08 7.11, 9.86 -0.17 M1.19 20.31 C3 12.73, 6.63 10.04, 16.83 -1.64 M0.42 19.37 C4.91 13.27, 8.93 8.89, 15.51 0.47 M-1.21 24.14 C9.71 16.47, 15.75 5.62, 22.67 -0.15 M0.62 23.77 C4.45 18.42, 9.07 13.36, 21.43 -0.91 M0.34 30.26 C9.38 20.81, 17.71 7.43, 24.82 -1.51 M0.44 30.52 C6.2 23.46, 11.62 18.28, 25.82 0.11 M-0.36 36.49 C7.52 26.03, 13.98 17.72, 32.59 -1.58 M-0.24 36.3 C7.92 27.07, 18.32 17.25, 32.78 -1.1 M-1.66 42.74 C11.38 31.87, 20.9 20.32, 36.57 0.97 M-0.5 41.76 C13.46 26.89, 27.67 10.36, 36.84 -0.2 M0.02 49.32 C14.41 34.72, 26.02 19.78, 41.82 -1.45 M-0.31 49.7 C10.62 35.56, 22.18 21.79, 42.2 0.04 M-1.23 55.65 C19.1 35.77, 35.4 15.69, 46.67 0.72 M0.05 53.89 C15.92 36.76, 30.89 17.71, 47.51 -0.16 M1.89 62.29 C18.78 39.29, 38.84 14.35, 51.95 0.14 M0.72 61.01 C17.23 42.11, 33.4 22.41, 53.11 0.31 M-1.44 65.66 C21.07 42.87, 39.2 20.14, 59.73 -1.37 M-1.11 67.45 C22.03 42.23, 43.31 18.39, 57.78 -0.47 M1.83 72.3 C14.97 57.87, 28.2 40.46, 62.57 1.1 M0.79 73.53 C14.45 55.75, 30.99 37.22, 63.99 0.5 M-1.36 81.15 C14.49 65.39, 25.89 46.2, 70.32 1.62 M-0.22 79.75 C19.25 56.6, 36.8 35.22, 68.62 -0.84 M-1.56 86.26 C18.01 62.89, 39.82 40.03, 75.29 1.35 M0.86 85.55 C28.15 52.38, 57.04 20.8, 74.28 0.4 M-0.07 90.81 C18.3 70.34, 35.21 49.12, 79.05 -1.41 M-0.49 91.33 C25.42 63.26, 48.71 35.44, 79.97 0.03 M-0.35 97.83 C21.41 72.88, 45.47 47.51, 85.69 -1.23 M0.23 97.13 C30.73 63.4, 60.99 27.16, 84.43 -1.19 M2.03 104.52 C19.02 80.94, 37.69 58.04, 88.51 0.45 M0.56 102.98 C24.53 76.22, 49.07 49.29, 90.79 0.44 M1.38 108.41 C26.31 79.71, 49.9 50.77, 95.36 1.29 M-0.85 109.06 C29.49 74.6, 60.48 40.72, 95.9 -0.46 M-1.47 114.19 C29.52 84.54, 55.72 49.52, 99.3 0.1 M0.36 116.5 C22.79 89.68, 43.05 65.22, 101.03 -0.32 M-0.45 123.66 C26.47 95.3, 50.29 67.17, 107.9 -1.2 M0.94 121.38 C26.95 88.6, 56.02 55.75, 107.15 -0.63 M0.36 126.49 C42.2 79.17, 88.4 26.62, 110 0.45 M0.71 127.45 C38.88 84.54, 78.9 39.51, 111.65 0.05 M0.76 134.48 C44.94 84.59, 89.45 33.84, 116.26 -0.03 M0.53 134.4 C39.52 87.44, 80.47 39.61, 116.96 0.86 M-1.55 139.82 C32.71 103.18, 64.61 67.85, 121.21 -1.59 M0.38 140.11 C41.06 93.03, 82.66 45.72, 122.58 0.85 M1.62 145.79 C34.79 105.74, 66.22 70.9, 125.32 1.19 M-0.11 145.4 C48.48 90.12, 99.43 33.53, 127.11 1.3 M-0.25 152.78 C34.88 110.67, 71.95 66.96, 131.64 0.78 M-0.75 152.07 C49.4 96.23, 97.44 40.93, 132.78 0.33 M0.01 157.41 C43.85 108.8, 90.15 54.82, 136.22 -0.73 M-0.63 159.37 C44.42 106.03, 90.01 55.75, 138.29 1.13 M1.55 165.3 C48.01 106.69, 96.46 51.33, 141.76 0.65 M0.47 164.95 C45.22 114.23, 89.81 62.49, 142.37 -0.08 M-1.77 172.02 C48.64 114.28, 95.25 61.05, 148.03 -0.22 M0.04 170.4 C56.42 107.1, 113.06 42.65, 147.38 -0.42 M0.19 175.67 C36.36 136.99, 69.86 96.6, 153.85 0.8 M0.8 175.96 C55.7 114.11, 109.65 50.98, 153.88 -0.2 M1.06 182.48 C45.87 128.43, 94.71 74.76, 158.81 -0.97 M0.36 183.05 C44.37 133.03, 88.99 82.54, 159.09 -0.14 M-0.13 188.05 C44.78 138.85, 88.15 89.18, 164.94 -1.32 M-0.78 189.14 C61.07 120.01, 122.07 49.8, 163.81 -0.63 M-1.09 196.34 C64.26 119.07, 131.63 42.59, 168.32 -1.32 M0.33 195 C42.85 144.21, 86.14 95.22, 168.71 0.84 M1.43 202.31 C41.15 155.29, 81.35 108.09, 174.01 -0.04 M0.66 201.9 C61.09 132.58, 121.61 63.8, 174.65 0.48 M1.8 204.69 C43.03 155.27, 89.12 105.33, 181.03 -1.39 M2.04 205.03 C43.81 155.37, 85.61 104.69, 180.69 0.73 M6.38 204.47 C44.42 163.24, 80.3 119.54, 184.75 -1.13 M8.03 204.97 C69.49 133.05, 132.69 60.31, 186.28 -0.63 M11.65 205.58 C51.62 161.69, 87.96 118.32, 190.3 0.25 M11.75 205.11 C59.37 149.98, 105.95 95.28, 190.62 0.24 M16.78 203.73 C56.05 159.45, 94.08 115.66, 195.99 0.87 M17.77 205.09 C85.25 129.56, 153.59 51.64, 196.35 -0.55 M21.35 205.55 C81.44 139.81, 141.3 71.99, 200.52 0.45 M22.59 206.01 C68.18 153.16, 115.19 99.56, 201.21 0.74 M27.44 203.8 C88.94 134.82, 151.01 63.03, 208.22 0.42 M27.74 204.31 C79.17 143.72, 132.82 83.18, 206.38 0.15 M34.46 205.31 C94.92 134.26, 157.57 62.48, 211.36 0.69 M32.94 205.65 C77.5 152.87, 122.38 101.34, 211.26 -0.25 M38.05 206.16 C104.87 129.7, 170.87 52.61, 217.22 -0.22 M39.84 204.81 C91.38 146.03, 143.7 85.82, 217.12 0.14 M43.66 204 C98.57 140.41, 158.36 75.09, 224.08 0.91 M43.57 205.79 C110.23 129.3, 176.29 53.01, 221.9 0.21 M49.85 204.49 C86.87 161.32, 125.03 116.09, 229.68 -0.33 M50.53 204.86 C93.24 156.84, 135.77 108.12, 228.53 -1.11 M55.64 205.46 C123.08 127.04, 191.72 47.96, 232.12 -0.54 M54.42 205.91 C97.4 155.63, 141.49 105.74, 233.48 -0.36 M59.41 203.4 C106.81 152.98, 153.41 101.27, 237.62 -0.03 M60.17 205.1 C118.26 140.1, 175.55 73.09, 237.57 0.49 M66.2 205.71 C132.94 129.9, 198.44 50.96, 242.96 -0.59 M64.69 204.66 C103.93 163.53, 139.77 122.33, 244.02 -0.57 M71.08 205.95 C141.51 124.4, 208.91 45.19, 249.06 -0.1 M71.45 205.35 C110.57 159.09, 150.12 114.28, 248.64 -0.23 M75.78 205.46 C119.45 153.83, 163.46 103.05, 251.18 1.36 M75.89 204.63 C125.45 149.4, 174.23 90.99, 251.89 2.47 M81.43 204.23 C118.97 162.15, 156.03 118.37, 251.89 7.62 M81.6 204.69 C133.77 145.41, 186.23 84.04, 251.48 9.15 M86.42 203.8 C129.52 154.79, 170.23 104.74, 251.45 12.76 M87.24 204.45 C122.01 165.95, 155.4 127.64, 253.27 14.6 M91.67 204.45 C129.37 162.47, 164.86 117.36, 253.73 19.33 M91.72 204.51 C135.17 153.38, 178.87 103.69, 251.55 20.38 M98.7 204.69 C148.95 144.87, 199.25 84.37, 252.04 25.38 M97.05 205.23 C126.87 169.09, 158.5 133.6, 252.24 26.62 M101.47 205.01 C138.94 164.62, 173.77 124.59, 253.48 33.74 M102.2 205.52 C146.45 155.94, 189.28 105.31, 253.01 33.15 M108.08 203.97 C154.42 150.93, 203.3 96.76, 253.71 40 M107.73 205.58 C137.95 171.81, 168.36 136.73, 252.62 39.09 M112.17 205.84 C156.86 156.21, 199.96 107.66, 251.46 44.88 M114.36 204.16 C146.66 166.88, 179.37 127.56, 252.42 45.25 M118.41 205.87 C170.19 146.73, 219.61 85.4, 253.99 49.8 M119.31 204.82 C151.71 167.41, 185.02 129.5, 252.76 51.19 M122.77 205.88 C155.35 168.58, 191.6 129.82, 253.55 54.89 M122.56 205.28 C162.77 160.99, 201.09 116.53, 252.21 56.89 M128.4 206.03 C172.65 156.39, 218.47 104.88, 253.59 62.35 M129.07 204.97 C158.34 169.39, 190.19 133.78, 253.31 63.55 M132.49 207.1 C179.32 155.6, 224.99 103.35, 252.34 69.55 M135.14 205.53 C175.82 156.97, 218.71 110.9, 251.85 69.98 M138.73 204.88 C181.17 155.04, 224.56 107.91, 251.73 76.18 M140.66 205.49 C168.9 172.54, 196.84 139.63, 252.65 74.94 M144.08 204.31 C174.32 172.91, 202.35 138.68, 251.58 82.29 M143.98 204.38 C185.66 157.64, 226.21 111.36, 251.59 81.39 M151.98 205.43 C180.88 169.92, 210.24 136.65, 254.22 87.04 M151.13 204.64 C188.58 161.86, 225.15 117.06, 252.27 87.18 M155.13 205.43 C174.62 179.78, 194.84 160.73, 251.21 94.75 M154.56 205.64 C179.18 176.97, 202.99 148.99, 252.72 93.15 M160.74 204.59 C182.68 176.86, 207.75 151.1, 251.98 101.59 M160.42 205.71 C185.06 178.23, 206.22 153.26, 251.98 99.81 M165.25 204.36 C183.38 183.94, 200.39 166.84, 253.82 105.85 M165.3 206.1 C196.81 170.61, 228.53 134.75, 252.18 105.59 M171.6 205.27 C194.75 174.74, 220.88 146.17, 251.93 110.22 M171.49 205.01 C187.78 186.31, 205.92 167.22, 252.54 111.12 M176.01 205 C204.37 175.63, 229.28 143.88, 252 116.5 M175.68 205.56 C205.64 172.07, 233.79 139.07, 251.95 117.97 M181.17 204.36 C209.65 172, 236.32 141.18, 253 123.6 M182.29 205.83 C201.21 182.42, 221.44 160.66, 251.75 124.66 M187.02 205.27 C203.28 188.57, 220.79 168.72, 251.7 130.34 M188.15 204.82 C205.92 183.04, 225.79 162.63, 252.3 131.37 M192.03 204.77 C216 179.64, 237.36 154.03, 252.78 137.64 M193.78 204.46 C216.38 178.06, 239.54 150.5, 253.05 136.23 M199.87 205.06 C216.56 180.72, 239.92 157.43, 250.81 142.79 M198.15 205.66 C218.39 182.27, 237.97 158.62, 252.52 141.57 M204.77 203.42 C219.78 183.33, 237.89 164.83, 250.87 146.23 M203.91 204.22 C221.42 183.58, 240.13 162.78, 252.91 148.63 M210.16 206.28 C225.17 187.82, 239.04 170.19, 251.28 153.51 M208.14 204.89 C225.79 184.44, 243.28 165.8, 252.89 153.62 M213.99 203.2 C222.92 192.85, 229.9 186.33, 252.2 162.04 M213.63 205.38 C228.24 189.75, 243.42 172.65, 252.12 160.41 M219.47 204.85 C226.77 197.85, 233.16 188.35, 253.69 167.39 M219.58 204.31 C227.32 194.92, 235.98 184.86, 253.36 166.81 M224.29 205.03 C232.2 196.07, 243.23 185.26, 253.69 173.47 M224.89 205.25 C235.14 192.67, 246.44 179.29, 252.45 172.85 M231.4 206.66 C237.77 196.91, 242.36 193.36, 252.65 179.34 M228.91 204.71 C236.9 196.52, 243.57 188.91, 252.9 179.45 M233.6 204.56 C239.57 201.37, 241.89 195.87, 252.27 185.18 M234 204.89 C240.84 199.01, 247.21 190.41, 252.68 184.5 M239.64 203.77 C242.56 201.11, 246.5 194.88, 252.1 191.08 M239.68 205.81 C243.53 201.63, 247.7 197.26, 252.74 191.57 M244.55 205.29 C247.66 201.35, 251.27 198.25, 252.04 198.19 M245.87 205.77 C248.23 203.01, 250.89 199.9, 253 196.6" stroke="#868e96" stroke-width="0.5" fill="none"></path><path d="M0.04 -1.63 C59.79 -0.23, 117.74 -3.16, 249.68 0.8 M-0.8 -0.06 C61.56 -2.03, 123.41 -0.77, 249.89 0.06 M249.53 -1.56 C249.25 72.62, 251.63 145.79, 249.91 203.94 M249.73 -0.73 C249.2 55.09, 248.92 109.87, 250.58 202.91 M249.95 204.78 C185.76 202.81, 120.66 203.41, 1.19 203.72 M249.84 203.54 C168.36 202.79, 88.43 203.4, 0.63 203.87 M-0.52 203.41 C0.12 147.04, -0.98 87.46, 1.26 -0.76 M-0.83 204.1 C1.16 156.6, 0.41 109.1, -0.16 0.68" stroke="#000000" stroke-width="1" fill="none"></path></g><g transform="translate(144.4921875 266.251953125) rotate(0 52 12.5)"><text x="52" y="18" font-family="Virgil, Segoe UI Emoji" font-size="20px" fill="#000000" text-anchor="middle" style="white-space: pre;" direction="ltr">Disk Index</text></g><g transform="translate(116.0234375 100.009765625) rotate(0 79 12.5)"><text x="79" y="18" font-family="Virgil, Segoe UI Emoji" font-size="20px" fill="#000000" text-anchor="middle" style="white-space: pre;" direction="ltr">In-memory Index</text></g></svg>