<svg version="1.1" xmlns="http://www.w3.org/2000/svg" viewBox="0 0 906.80859375 468.44921875000006" width="1813.6171875" height="936.8984375000001">
  <!-- svg-source:excalidraw -->
  
  <defs>
    <style>
      @font-face {
        font-family: "Virgil";
        src: url("https://excalidraw.com/Virgil.woff2");
      }
      @font-face {
        font-family: "Cascadia";
        src: url("https://excalidraw.com/Cascadia.woff2");
      }
    </style>
  </defs>
  <rect x="0" y="0" width="906.80859375" height="468.44921875000006" fill="#ffffff"></rect><g stroke-linecap="round" transform="translate(10 61.28515625) rotate(0 177.119140625 198.58203125000003)"><path d="M-1.03 0.09 C85.7 -1.4, 170.6 -2.31, 353.91 -0.5 M-0.01 -0.46 C116.16 -0.78, 232.26 -0.49, 354.51 0.22 M353.66 -1.11 C352 137.64, 353.24 275.06, 353.28 398.08 M354.41 0.56 C352.94 151.23, 353.43 301.74, 353.99 397.12 M355.16 397.34 C276.53 397.18, 196.94 399.05, -0.41 396.6 M354.4 397.74 C223.94 397.05, 92.4 397.59, -0.5 397.02 M-0.65 397.93 C-0.1 256.05, 0.98 113.58, -0.79 0.82 M-0.53 397.44 C-0.67 286.79, -0.47 176.72, 0.1 0.45" stroke="#000000" stroke-width="1" fill="none"></path></g><g transform="translate(144.07421875 67) rotate(0 23.5 12.5)"><text x="0" y="18" font-family="Virgil, Segoe UI Emoji" font-size="20px" fill="#000000" text-anchor="start" style="white-space: pre;" direction="ltr">index</text></g><g stroke-linecap="round" transform="translate(57.79296875 124.515625) rotate(0 126.81640625000003 39.279296875)"><path d="M0 0 C0 0, 0 0, 0 0 M0 0 C0 0, 0 0, 0 0 M-0.63 6.56 C1.52 4.68, 1.86 4.27, 5.32 -0.08 M-0.2 6.4 C0.94 5.3, 1.76 3.97, 4.92 0.62 M1.04 11.16 C2.23 8.83, 4.15 7.96, 11.8 0.91 M-0.34 11.31 C3.93 9, 6.53 5.4, 10.43 0.42 M-1.44 17.97 C2.01 14.16, 7.36 9.33, 13.66 -0.73 M-0.76 18.88 C5.51 12.06, 9.75 8.15, 16.25 -0.57 M-0.82 24.53 C5.19 17.43, 12.77 9.42, 22.13 1.14 M0.44 24.85 C5.94 17.53, 10.85 11.1, 21.29 0.47 M-0.88 30.12 C7.79 23.8, 12.9 15.47, 24.61 1.16 M-0.1 30.33 C8.83 20.64, 15.99 13.34, 25.71 0.49 M-1.56 35.88 C7.14 26.69, 14.67 20.87, 32.98 -1.42 M0.29 37.4 C8.59 26.45, 18.19 16.85, 32.27 0.39 M-0.63 42.82 C10.4 32.4, 17.36 22.1, 38.59 -0.47 M0.2 43.21 C13.82 27.67, 25.92 12.81, 37.03 1.14 M0.26 50.09 C15.72 30.36, 31 13.89, 41.56 -0.97 M0.2 48.23 C14.86 29.62, 31.62 12.02, 42.61 -0.25 M0.23 53.68 C15.01 37.65, 25.16 23.59, 49.51 -1.02 M-0.57 54.98 C15.03 37.79, 29.07 21.02, 46.97 -0.67 M1.89 60.49 C15.99 41.88, 36.1 22.13, 54.78 -1.89 M0.32 60.04 C11.72 47.34, 22.72 34.42, 52.62 -0.99 M-0.06 67.04 C11.81 52.24, 23.29 36.78, 57.26 2.09 M-0.78 66.83 C16.96 48.34, 33.95 26.49, 57.36 0.02 M-0.77 73.69 C13.25 58.68, 28.07 42.52, 65.55 1.41 M0.43 73.79 C15.92 56.42, 30.39 40.02, 63.58 -0.37 M1.39 78.22 C15.86 62.33, 30.42 42.93, 67.76 1.46 M0.85 77.96 C28.87 47.21, 54.32 16, 68.97 -0.83 M7.44 80.24 C29.68 52.43, 51.69 29.2, 72.76 0.51 M4.58 79.39 C25.35 56.71, 44.71 33.15, 73.8 0.04 M12 77.02 C37.03 45.47, 64.43 14.81, 80.92 -0.31 M11.14 79.01 C34.1 52.09, 56.07 27.68, 79.62 -0.28 M14.43 78.72 C36.25 54.89, 57.28 30.12, 85.33 1.01 M16.58 79.79 C29.45 62.73, 43.38 48.22, 84.57 -0.29 M22.84 80.35 C41.24 53.94, 63.66 32.28, 90.63 1.37 M21.54 78.75 C45.13 52.66, 67.89 26.06, 90.09 -0.38 M24.85 79.79 C47.12 59.58, 64.07 36.24, 94.17 -1.49 M25.96 78.99 C43.64 59.55, 61.84 39.01, 96.19 -0.91 M32.82 79.79 C47.95 62.85, 61.67 41.5, 100.81 1.09 M32.35 77.64 C58.34 48.52, 84.92 18.53, 100.19 -0.16 M38.61 78.02 C53.29 60.58, 72.09 40.27, 108.17 -1.4 M36.53 77.93 C55.09 60.2, 71.67 40.28, 105.96 -0.37 M42.84 76.95 C66.14 51.13, 90.68 24.31, 109.36 -0.56 M42.87 79.13 C63.62 56.17, 83 33.23, 110.7 0.32 M49.62 78.01 C74.38 50.85, 96.67 18.21, 117.59 1.63 M47.08 78.58 C67.25 57.87, 85.2 35.37, 115.51 0.54 M51.16 80.18 C75.49 50.86, 99.75 22.64, 120.18 -0.97 M52.74 78.43 C68.06 60.71, 85.78 43.18, 121.43 0.02 M57.78 78.35 C77.53 56.93, 98.98 34.26, 128.64 -0.33 M59.41 77.88 C82.53 54, 105.36 27.22, 127.46 -0.23 M63.99 77.55 C92.3 49.3, 120.02 15.15, 131.2 0.44 M64.57 79.48 C79.36 61.78, 96.25 42.32, 133.17 0.88 M69 79.65 C89.73 54.84, 111.33 31.79, 135.59 1.09 M68.31 79.79 C91.56 54.14, 111.96 29.3, 137.45 0.52 M75.58 77.42 C101.79 46.8, 127.65 16.45, 142.3 -1.74 M74 79.49 C92.25 59.55, 108.06 40.41, 143.73 -0.13 M79.19 80.48 C98.59 59.63, 116.73 40.2, 147.32 -0.52 M79.59 79.26 C94.43 61.5, 109.27 44.65, 148.77 0.24 M86.84 77.37 C105.72 54.11, 126 31.91, 155.4 1.1 M84.33 79.91 C107.01 53.4, 129.13 28.76, 153.89 -1.06 M90.25 77.46 C111.16 56.22, 130.08 35.23, 158.76 -1.58 M90.04 78.25 C112.37 53.39, 135.16 26.94, 159.72 -0.61 M96.67 81.01 C122.88 48.77, 148.13 17.89, 166.4 -0.45 M95.85 79.19 C120.83 48.35, 147.37 18.22, 163.45 -0.96 M102.08 77.16 C129.6 46.7, 154.55 17.65, 170.8 -0.49 M101.45 77.7 C120.6 59.04, 137.76 38.65, 169.6 -0.58 M105.98 77.92 C125.06 58.48, 143.87 36.41, 173.21 -1.81 M105.85 78.8 C127.39 55.64, 146.3 33.78, 175.22 0.12 M112.6 80.19 C135.22 51.29, 160.02 25.88, 178.36 -1.65 M112.63 79.57 C132.77 54.43, 151.36 32.06, 180.7 0.79 M117.69 79.71 C144.06 46.3, 169.08 17.52, 183.74 -0.38 M116.65 79.17 C144.26 47.83, 171.8 16.14, 184.98 -0.87 M121.71 77.13 C145.39 49.73, 170.51 22.65, 190.33 0.53 M123.36 78.82 C139.33 60.44, 154.93 41.65, 190.33 0.94 M128.68 79.96 C153.27 51.92, 175.17 23.22, 195.88 0.44 M127.53 79.78 C150.19 52.76, 172.66 24.74, 195.54 0.04 M131.32 80.58 C155.94 51.92, 180.07 24.36, 201.63 1.64 M132.46 79.39 C157.92 50.39, 182.79 21.04, 200.77 0.33 M137.88 78.27 C156.1 62.12, 170.07 42.96, 205.56 -0.76 M138.79 79.06 C155.3 58.21, 173.52 37.37, 206.69 -0.22 M145.33 77.15 C168.14 51.94, 191.01 23.77, 213.16 -0.72 M143.71 78.24 C163.79 56.16, 183.04 33.38, 211.33 0.42 M150.18 80.23 C162.51 63.66, 175.09 46.27, 218.67 0.62 M147.73 78.47 C162.3 60.83, 176.72 44.55, 217.23 0.33 M153.65 79.4 C173.83 57.03, 193.35 30.65, 223.83 1.04 M153.91 79.32 C175.71 54.43, 195.13 31.68, 222.29 -0.34 M160.49 77.44 C181.51 51.31, 207.75 22.6, 227.12 -0.84 M158.64 78.46 C182.16 52.52, 203.72 26.21, 228.96 0.61 M164.18 77.96 C182.29 58.56, 197.4 43.03, 234.54 0.51 M164.86 77.59 C192.65 49.04, 220.2 17.62, 232.97 -0.51 M169.72 79.48 C184.74 59.69, 201.57 41.07, 240.16 0.22 M170.82 78.49 C189.02 57.21, 206.56 36.06, 238.01 -0.64 M174.18 78.15 C192.1 59.37, 209.76 38.36, 244.2 1.29 M174.69 79.75 C192.81 58.23, 210.33 36.68, 243.66 0.38 M180.78 77.96 C207.38 51.49, 232 19.08, 247.01 0.88 M180.57 79.02 C205.89 49.87, 232.84 20.87, 249.49 0.01 M184.87 81.07 C202.95 60.22, 216.99 44.38, 253.06 1.73 M186.53 79.25 C205.98 55.63, 228.26 29.56, 252.99 0.52 M190.56 78.47 C212.49 54.94, 230.58 32.98, 255.67 4.52 M191.19 79.48 C208.45 56.62, 226.8 36.1, 254.3 7.3 M197.48 80.06 C211.67 64, 225.52 45.38, 254.84 11.98 M196.5 78.8 C208.85 63.75, 222.57 50.29, 254.07 12.95 M201.99 80.59 C218.19 60.3, 237 36.68, 254.05 17.74 M200.96 78.34 C219.78 56.83, 238.55 36.69, 254.24 18.19 M207.94 77.72 C225.37 55.84, 243.4 37.25, 252.29 26.33 M206.41 79.34 C215.75 67.99, 226.05 57.4, 254.06 23.79 M211.96 77.93 C221.5 65.13, 232.89 56.67, 252.64 31.86 M213.2 79.06 C221.27 68.62, 230.09 58.86, 254.69 31.35 M218.15 78.64 C229.54 62.74, 242.21 50.84, 252.31 36.35 M217.05 78.84 C229.01 63.93, 243.03 50.24, 253.24 37.5 M223.37 78.08 C230.46 69.11, 242.44 58.52, 252.66 43.95 M222.19 78.07 C230.13 71.45, 236.6 63.47, 254.77 42.22 M228 77.41 C237.39 67, 245.74 60.14, 255.82 47.66 M228.21 78.24 C234.71 73.03, 240.43 65.77, 254.91 49.52 M233.15 78.63 C238.8 72.49, 244.9 66.37, 255.37 55.36 M233.24 78.84 C238.46 73.66, 242.75 67.46, 254.6 55.51 M239.42 78.64 C243.29 72.42, 248.33 69.42, 253.05 60.58 M238.71 79.49 C243.96 72.67, 249.19 65.28, 254.7 61.07 M244.23 79.03 C247.05 76.06, 250.54 71.16, 253.06 68.34 M244.57 78.02 C248.43 75.25, 251.22 70.54, 254.05 67.95 M248.99 79.64 C251.13 77.44, 253.14 76.07, 254.05 74.22 M249.7 79.17 C251 77.09, 252.6 75.28, 253.7 73.82" stroke="#40c057" stroke-width="0.5" fill="none"></path><path d="M-1.06 0.31 C80.03 -1.4, 159.82 -1.6, 254.57 -0.21 M-0.18 -0.03 C58.84 0.87, 117.35 0.89, 253.11 -0.74 M254.2 0.63 C255.47 17.56, 252.42 38, 251.81 78.67 M253.21 -0.77 C253.55 25.03, 252.75 48.19, 253.83 79.41 M255.2 77.31 C197.75 81.96, 144.73 80.14, -0.39 79.4 M254.04 77.86 C167.96 78.61, 83.33 79.21, -0.64 78.4 M-0.67 79.18 C-0.97 46.67, 0.37 18.01, 0.86 0.16 M-1 77.64 C0.16 62.68, 0.04 45.98, 0.29 0.89" stroke="#000000" stroke-width="1" fill="none"></path></g><g stroke-linecap="round" transform="translate(61.6015625 227.869140625) rotate(0 125.056640625 101.69531250000001)"><path d="M0 0 C0 0, 0 0, 0 0 M0 0 C0 0, 0 0, 0 0 M-0.85 6.15 C1.41 4.56, 2.11 4.17, 5.1 0.73 M-0.27 6.01 C0.99 4.88, 2.25 3.76, 4.63 0.38 M-0.8 12.98 C3.1 6.38, 7.4 2.69, 9.46 -0.36 M-0.04 12.76 C3.44 7.93, 8.52 3.07, 10.31 0.69 M-1.25 18.95 C4.58 11.67, 10.41 7.91, 15.73 -0.27 M0.35 17.63 C5.49 13.01, 10.06 7.94, 15.83 0.18 M1.31 22.76 C4.69 16.87, 14.28 9.58, 19.57 0.69 M0.94 24.04 C6.65 18.32, 10.44 11.11, 20.37 0.32 M-0.4 29.6 C6.34 22.82, 12.38 16.51, 24.48 -1.5 M0.01 29.69 C6.64 21.68, 14.24 14.52, 25.75 0.26 M0.42 36.26 C5.06 31.4, 12.75 19.95, 32.81 0.34 M-1.07 37.77 C11.38 23.48, 22.83 9.81, 31.55 -0.14 M-1.58 41.66 C11.8 29.78, 23.06 15.62, 36.11 -1.49 M0.14 43.4 C7.55 32.84, 15.09 24.83, 37.8 -0.04 M-1.81 49.12 C11.47 37, 20.2 26.3, 44.48 0.42 M-0.84 47.92 C14.9 30.27, 32.55 11.89, 42.22 0.29 M-1.21 53.03 C15.51 39.03, 28.57 21.02, 49.23 -1.35 M1.2 53.57 C14.89 38.08, 28.52 22.01, 46.95 -0.43 M0.56 60.98 C9.95 50.59, 23.39 37.44, 52.18 0.85 M-0.08 61.55 C21.04 36.08, 42.16 13.55, 53.84 -0.59 M1.66 68.37 C19.71 46.71, 35.63 23.82, 56.42 -0.16 M-0.01 66.74 C13.06 51.72, 26.99 36.35, 57.15 0.39 M0.14 72.76 C19.41 49.31, 38.36 28.17, 63.5 -0.48 M-0.84 73.95 C14.06 55.77, 30.84 38.26, 62.85 0 M-0.06 80.08 C25.6 52.56, 50.51 22.68, 68.27 0.97 M0.26 80.19 C25.76 48.55, 52.24 19.54, 69.34 0.71 M-0.49 83.37 C27.11 53.38, 53.36 26.89, 76.04 0.35 M-0.17 85.41 C18.66 63.27, 38.14 42.26, 74.71 -0.12 M-1.45 92.82 C23.18 64.73, 48.73 37.36, 81.39 -1.04 M0.83 90.49 C17.81 70.69, 34.26 49.67, 79.48 -0.16 M-1.4 98.46 C24.4 69.55, 50.92 38.09, 85.38 1.23 M-0.76 98 C21.02 71.58, 42.77 47.31, 85.87 -0.17 M1.09 104.48 C34.41 65.78, 64.16 28.27, 90.36 0.72 M0.13 104.43 C30.68 68.61, 62.52 34.81, 90.53 0.06 M1.34 111.44 C39.33 67.3, 75.94 23.38, 97.13 -1.92 M-0.35 110.49 C17.79 85.96, 37.74 65.42, 95.8 -0.35 M1.16 114.99 C24.82 86.96, 48.22 60.85, 99.78 -0.86 M-0.37 115.8 C21.77 91.63, 42.35 66.93, 100.44 0.68 M-0.35 119.96 C42.68 73.92, 81.98 26.63, 106.87 0.8 M0.35 120.94 C29.78 86.41, 61.63 49.46, 106.93 0.15 M1.7 127 C30.44 91.05, 63.86 53.26, 112.24 1.14 M-0.88 128.16 C23.82 101.59, 48.49 72.65, 112.16 0 M0.12 134.93 C34.58 91.36, 71.81 50.89, 115.55 2.06 M0.3 133.65 C33.87 94.8, 68.01 58.64, 116.06 -0.14 M1.61 138.91 C32.69 104.47, 62.45 66.63, 120.34 -0.39 M-0.64 139.8 C28.47 108.52, 57.43 76.77, 121.64 -0.7 M-0.64 145.25 C40.35 99.59, 80.68 55.68, 128.06 2.24 M-0.55 145.91 C49.71 90.6, 97.99 35.06, 126.97 0.09 M-0.16 153.28 C42.01 105.37, 82.43 55.98, 130.86 1.32 M0.14 152.27 C31.52 113.94, 64.32 77.63, 131.91 0.8 M-0.65 158.62 C35.2 120.61, 66.41 83.31, 137.37 1.82 M0.06 158.78 C44.85 107.7, 89.32 55.57, 138.34 -0.52 M1.71 166.07 C51.25 106.53, 104.71 46.73, 143.74 -0.33 M0.85 165.22 C46.03 110.69, 93.05 56.08, 142.76 0.05 M1.55 170.42 C37.83 129.75, 74.55 87.1, 147.18 -0.57 M-0.43 170.15 C50.21 112.3, 100.95 53.68, 148.83 0.48 M-0.33 175.75 C60.87 108.22, 119.22 39.65, 154.3 0.82 M0.23 175.94 C42.24 129.99, 83.62 83.45, 153.29 -0.75 M0.76 183.96 C59.67 114.78, 119.87 46.15, 158.67 1.67 M-0.01 182.76 C60.69 116.64, 120.47 48.42, 158.07 -0.53 M1.26 189.83 C48.11 133.04, 96.89 76.68, 163.24 -1.28 M0.56 188.5 C57.66 125.13, 112.87 60.61, 165.11 -0.55 M0.94 193.37 C62.06 125.09, 121.96 54.29, 168.14 -0.01 M-0.39 194.32 C40.5 149.89, 79.69 104.08, 169.74 0.48 M0.75 201.64 C48.77 145.88, 97.38 90.88, 175.92 -0.88 M0.2 201.9 C56.87 136.1, 113.53 71.29, 175.69 -0.77 M2.22 206.02 C48.58 151.44, 95.2 100.59, 180.14 0.92 M2.1 205.2 C47.27 150.71, 94.43 97.87, 180.09 0.07 M6.16 203.67 C46.28 159.17, 86.54 115.06, 186.35 -0.57 M6.94 205.24 C60.57 145.04, 114.33 83.18, 185.11 -0.4 M12.96 204 C48.77 165.01, 83.81 122.26, 191.12 -0.39 M12.14 205.77 C61.42 148.74, 110.5 92.16, 191.1 0.49 M16.33 205.05 C77.57 137.55, 138.34 68.3, 196.63 -1.19 M17.18 205.29 C61.1 153.63, 103.53 103.97, 195.65 -0.76 M22.85 206.42 C66.5 152.7, 113.18 101.71, 202.37 -0.91 M22.86 205.27 C61.47 158.67, 101.88 114.01, 200.77 0 M29.19 206.35 C84.34 144.47, 135.52 81.02, 207.21 1.11 M28.76 205.66 C72.98 155.2, 115.25 106.66, 207.27 -0.84 M32.37 204.64 C93.48 133.36, 153.61 65.1, 210.44 0.86 M34.22 204.71 C88.82 139.24, 145.88 73.83, 212.58 0.78 M38.2 205.95 C96.78 138.52, 156.4 70.93, 216.99 -0.78 M38.92 205.4 C86.18 150.17, 133.87 94.68, 217.6 -0.4 M43.52 204.03 C100.69 139.97, 158.57 73.27, 222.83 -1.39 M43.86 205.88 C98.02 142.48, 151.55 81.1, 222.99 -0.43 M50.83 203.76 C103.99 142.83, 156.59 81.88, 229.56 0.09 M50.36 204.36 C88.11 161.32, 126.49 117.46, 228.16 0.01 M53.66 205.31 C115.46 135.72, 175.89 68.17, 232.97 0.06 M54.84 205.12 C125.79 124.32, 196.2 41.86, 233.89 0.1 M60.54 204.39 C100.34 159.65, 139.6 116.46, 236.92 0.51 M60.3 204.72 C102.61 156.88, 145.36 106.92, 237.48 -0.19 M64.81 204.51 C105.63 156.7, 149.71 107.51, 245.22 -1.1 M64.8 205.78 C123.47 138.03, 182.54 69.96, 243.32 0.65 M71.69 204.66 C137.07 127.01, 207.22 47.97, 250.22 -0.32 M71.44 204.76 C114.28 155.29, 156.65 106.21, 248.39 0.07 M77.44 205.44 C139.86 133.9, 201 60.74, 251.06 1.99 M75.25 205.76 C138.19 134.75, 197.65 65.85, 252.77 2.55 M80.81 206.08 C147.27 132.11, 209.03 58.3, 251.09 8.91 M80.99 205.12 C148.87 128.16, 216.3 50.86, 252.21 8.51 M87.33 204.1 C144.86 138.7, 201.02 70.76, 251.39 13.69 M86.97 205.27 C146.72 138.08, 204.51 70.66, 252.11 14.76 M92.33 205.4 C142.68 148.51, 189.89 91.2, 253.43 21.3 M91.67 203.99 C152.16 135.26, 211.46 67.54, 252.86 20.03 M98.07 204.39 C150.63 142.15, 206.3 78.08, 251.31 25.67 M96.7 205.34 C156.97 135.52, 218.06 65.44, 253.46 26.5 M102.74 204.03 C154.51 142.32, 208.24 80.98, 252.97 32.06 M102.27 205.35 C155.86 142.38, 209.68 81.26, 252.74 32.75 M108.53 205.52 C139.02 167.25, 173.13 128.12, 251.5 38.64 M108.54 204.56 C166.44 139.57, 223.94 72.98, 252.43 38.29 M113.32 205.35 C144.3 168.51, 176.67 131.82, 253.46 45.37 M114.05 203.95 C148.04 166.15, 179.88 128.53, 253.49 44.4 M119.21 204.81 C159.41 155.76, 202.8 109.94, 253 52.82 M119.07 205.79 C170.31 144.32, 224.39 82.85, 252.34 51.07 M123.03 204.78 C165.98 155.51, 206.39 109.77, 253.84 56.84 M123.23 204.58 C173.41 148.35, 222.37 91.05, 252.41 56.99 M128.8 204.73 C160 170.94, 190.35 136.89, 253.05 61.57 M129.03 205.88 C167.5 161.94, 205.6 117.64, 252.04 63.76 M134.82 204.33 C173.69 159.14, 209.02 115.56, 253.77 67.77 M134.25 205.92 C169.13 167.83, 201.61 131.44, 252.47 68.71 M141.77 206.36 C182.19 160.24, 221.11 112.56, 250.9 74.11 M140.29 205.77 C180.85 157.3, 223.87 108.29, 252.01 75.07 M143.61 206.75 C170.32 175.82, 195.39 145.31, 253.27 79.65 M144.98 205.44 C177.93 168.49, 209.22 131.16, 252.06 82.3 M148.78 204.56 C186.12 165.64, 218 127.02, 252.21 86.56 M149.86 205.86 C184.21 167.32, 218.29 129.38, 253.71 86.78 M154.99 203.96 C189.38 163.98, 223.39 128.34, 252.28 94.14 M154.88 204.93 C187.28 168.45, 218.2 131.18, 252.48 93.83 M162.43 204.24 C190.16 173.73, 214.49 145.04, 251.92 101.57 M161.69 205.44 C195.75 164.61, 229.16 125.71, 252.93 100.45 M164.55 205.84 C186.72 176.84, 212.43 152.55, 253.4 106.14 M166.38 205.17 C196.57 170.72, 225.44 137.34, 252.68 105.57 M173.3 204.31 C195.31 179.45, 217.03 151.44, 252.94 113.53 M170.74 204.81 C194.41 178.91, 218 154.14, 252.44 112.35 M177.89 204.32 C197.23 181.35, 219.23 158.72, 253.22 116.55 M176.96 205.98 C195.57 186.37, 211.48 165.23, 252.61 116.84 M182 205.67 C200.39 185.7, 216.31 161.98, 254.2 125.12 M182.96 205.25 C199.86 184.8, 216.99 165.65, 252.03 124.06 M186.59 205.29 C212.88 175.68, 233.27 152.05, 253.67 129.05 M187.06 206.14 C210.4 179.19, 234.77 151.99, 252.57 130.69 M191.12 203.23 C208.95 187.74, 224.27 171.05, 253.3 136.24 M193.3 205.08 C205.07 191.04, 218.18 176.84, 253.16 135.35 M196.27 204.67 C210.62 191.2, 225.46 172.79, 252.67 143.02 M198.14 205.46 C208.53 192.07, 220.42 178.25, 251.83 142.89 M205.24 205.9 C212.31 191.37, 225.79 179.43, 253.84 148.79 M203.72 205.59 C214.14 194.55, 224.68 181.4, 252.28 149.04 M210.5 204.35 C222.07 191.17, 236.42 175.62, 252.14 154.13 M208.64 204.73 C225.71 186.41, 241.64 166.87, 252.68 154.5 M214.98 204.58 C229.52 187.11, 243.11 168.88, 252.75 159.44 M215.17 205.07 C226.51 188.86, 241.3 172.9, 252.19 161.66 M218.88 204.26 C226.04 194.52, 234.11 184.68, 252.69 167.28 M220.02 205.75 C229.58 191.76, 240.5 178.99, 253.07 166.83 M224.91 204.18 C232.1 193.89, 241.72 183.24, 250.93 172.58 M225.6 204.82 C233.45 196.26, 241.9 185.3, 252.65 172.51 M229.01 206.28 C236 199.58, 241.43 191.61, 252.91 177.38 M230.74 205.31 C234.42 198.02, 241.66 192.53, 251.96 178.16 M232.98 204.35 C238.07 199.49, 244.44 195.73, 253.33 184.87 M235.31 205.9 C240.97 199.18, 248.39 191.26, 252.46 184.14 M238.68 206.2 C243.15 201.18, 246.79 198.43, 252.69 190.23 M240.27 205.2 C242.72 202.01, 245.08 198.62, 252.61 190.63 M245.25 204.91 C247.21 202.47, 251.31 199.38, 252.04 197.72 M245.51 205.78 C247.82 202.15, 250.03 199.58, 252.34 197.24" stroke="#868e96" stroke-width="0.5" fill="none"></path><path d="M0.63 0.65 C74.4 -2.27, 148.84 -1.54, 248.74 -1.45 M0.25 -0.77 C64.72 0.59, 129.7 1.66, 249.91 0.03 M248.83 0.01 C248.75 60.51, 249.09 123.98, 249.35 202.76 M249.42 0.08 C251.16 77.28, 250.88 154.36, 250.69 202.7 M248.72 201.87 C156.41 205.65, 64.03 204.46, -0.71 202.77 M250.15 203.59 C159.38 204.11, 67.08 205.23, 0.71 203.42 M-0.93 205.05 C-0.12 121.52, 0.03 40.57, 0.15 -0.13 M0.04 203.32 C2.34 143.61, 2.17 85.71, -0.68 0.25" stroke="#000000" stroke-width="1" fill="none"></path></g><g transform="translate(144.4921875 317.537109375) rotate(0 52 12.5)"><text x="52" y="18" font-family="Virgil, Segoe UI Emoji" font-size="20px" fill="#000000" text-anchor="middle" style="white-space: pre;" direction="ltr">Disk Index</text></g><g transform="translate(116.0234375 151.294921875) rotate(0 79 12.5)"><text x="79" y="18" font-family="Virgil, Segoe UI Emoji" font-size="20px" fill="#000000" text-anchor="middle" style="white-space: pre;" direction="ltr">In-memory Index</text></g><g transform="translate(377.88671875 10) rotate(0 99 12.5)"><text x="0" y="18" font-family="Virgil, Segoe UI Emoji" font-size="20px" fill="#000000" text-anchor="start" style="white-space: pre;" direction="ltr">Searching documents</text></g><g stroke-linecap="round"><g transform="translate(717.1518107514507 151.23347731823958) rotate(0 -196.77456072411502 5.550139655908264)"><path d="M1.11 0.43 C-64.37 2.41, -327.96 9.77, -393.82 11.49 M0.23 -0.39 C-65.31 1.32, -328.81 8.48, -394.66 9.98" stroke="#000000" stroke-width="1" fill="none"></path></g><g transform="translate(717.1518107514507 151.23347731823958) rotate(0 -196.77456072411502 5.550139655908264)"><path d="M-366.02 -0.63 C-371.02 1.62, -378.45 4.48, -395.91 9.29 M-366.21 -1.06 C-377.51 2.89, -388.79 7.74, -395.21 10.65" stroke="#000000" stroke-width="1" fill="none"></path></g><g transform="translate(717.1518107514507 151.23347731823958) rotate(0 -196.77456072411502 5.550139655908264)"><path d="M-365.5 19.89 C-370.55 17.59, -378.1 15.89, -395.91 9.29 M-365.69 19.46 C-377.24 15.26, -388.73 11.97, -395.21 10.65" stroke="#000000" stroke-width="1" fill="none"></path></g></g><g stroke-linecap="round"><g transform="translate(709.0952611668085 315.3662118400185) rotate(313.34684523368185 -188.36422281144237 -93.39675757779048)"><path d="M0.43 0.22 C-62.31 -31.14, -313.83 -155.85, -376.83 -187.01 M-0.8 -0.71 C-63.57 -31.35, -314.28 -154.73, -377.16 -185.5" stroke="#000000" stroke-width="1" fill="none"></path></g><g transform="translate(709.0952611668085 315.3662118400185) rotate(313.34684523368185 -188.36422281144237 -93.39675757779048)"><path d="M-346.97 -180.34 C-355.49 -182.34, -363.13 -185.16, -377.85 -183.56 M-347.4 -182 C-357.39 -183.07, -366.44 -184.73, -376.49 -184.64" stroke="#000000" stroke-width="1" fill="none"></path></g><g transform="translate(709.0952611668085 315.3662118400185) rotate(313.34684523368185 -188.36422281144237 -93.39675757779048)"><path d="M-356.01 -161.92 C-362.26 -168.92, -367.46 -176.72, -377.85 -183.56 M-356.44 -163.58 C-363.57 -170.59, -369.72 -178.15, -376.49 -184.64" stroke="#000000" stroke-width="1" fill="none"></path></g></g><g transform="translate(458.80859375 128.37109375) rotate(0 32 12.5)"><text x="0" y="18" font-family="Virgil, Segoe UI Emoji" font-size="20px" fill="#000000" text-anchor="start" style="white-space: pre;" direction="ltr">search</text></g><g transform="translate(466.16796875 201.63671875) rotate(339.4754992571989 32 12.5)"><text x="0" y="18" font-family="Virgil, Segoe UI Emoji" font-size="20px" fill="#000000" text-anchor="start" style="white-space: pre;" direction="ltr">search</text></g><g transform="translate(738.80859375 138.5390625) rotate(0 79 12.5)"><text x="0" y="18" font-family="Virgil, Segoe UI Emoji" font-size="20px" fill="#000000" text-anchor="start" style="white-space: pre;" direction="ltr">combine results </text></g></svg>